<svg data-v-2a183b29="" xmlns="http://www.w3.org/2000/svg" viewBox="0 0 398.19 1000.21" id="lampadaire">
  <defs>
    <style>.cls-2{fill:#312f2f}.cls-3{fill:#3e3c39}.cls-4{fill:#7f7f7f}.cls-5{fill:#fff}.cls-6{fill:#181717}.cls-7{fill:#010101}.cls-8{fill:#bcbcbc}.cls-9{fill:#3b3838}.cls-10{fill:#070707}.cls-12{fill:#4e4f4d}.cls-14{fill:#45443f}.cls-15{fill:#1f201d}.cls-16{fill:#262626}.cls-17{fill:#404040}.cls-18{fill:#151612}.cls-19{fill:#4f4f4c}.cls-20{fill:#bfbfbe}.cls-21{fill:#403e3a}.cls-22{fill:#1e1f19}</style>
    <filter id="softGlowLampadaire1" height="500%" width="500%" x="-75%" y="-75%">
      <!-- Thicken out the original shape -->
      <feMorphology operator="dilate" radius="12" in="SourceAlpha" result="thicken" id="feMorphology815" />
      <!-- Use a gaussian blur to create the soft blurriness of the glow -->
      <feGaussianBlur in="thicken" stdDeviation="31" result="blurred" id="feGaussianBlur817" />
      <!-- Change the colour -->
      <feFlood flood-color="#FAF796" result="glowColor" id="feFlood819" flood-opacity="1" />
      <!-- Color in the glows -->
      <feComposite operator="in" result="softGlow_colored" id="feComposite821" in="glowColor" in2="blurred" />
      <!--	Layer the effects together -->
      <feMerge id="feMerge827">
        <feMergeNode in="softGlow_colored" id="feMergeNode823" />
        <feMergeNode in="SourceGraphic" id="feMergeNode825" />
      </feMerge>
    </filter>
    <radialGradient id="grad1" cx="50%" cy="50%" r="50%" fx="50%" fy="50%">
      <stop offset="0%" style="stop-color:rgb(247, 241, 148);stop-opacity:1" />
      <stop offset="100%" style="stop-color:rgb(243, 234, 95);stop-opacity:1" />
    </radialGradient>
  </defs>
  <path d="M188.53 228.68c-6.1-1.5-12.18-1.18-18.26-1-4 .12-5.57-1.49-6.58-5.07q-13.44-47.31-27.07-94.56c-2.25-7.84-4.67-15.63-6.32-23.63-.72-3.49.27-4.3 3.61-4.09 4.48.29 9 .07 13.48.07 11.87-.45 23.54 2.65 35.38 2.16 3.58-.15 5.57 1.55 6 5.09a30.81 30.81 0 01.46 4.46c-.56 18.84 1.44 37.61 2.83 56.31 1.32 17.76.25 35.61 2.94 53.28 1 6.41-.83 8.37-6.47 6.98zm33.8-.79c-4.53-.66-9.78 1.51-12.89-1.06s-1-7.84-1.5-11.91c-2.08-16.18-2.23-32.5-3.32-48.75-1.16-17.08-2.23-34.16-3.59-51.23s-2.52-13.35 11.81-16.1c19.44-3.74 39-7 58.5-10.22 6.46-1.07 6.76-.52 4.81 5.7-13.34 42.56-26.78 85.08-39.92 127.68-1.43 4.62-3.35 6.68-8.17 5.93a36.74 36.74 0 00-5.73-.04z" transform="translate(-.9 -.9)" class="lampadaire-glow"></path>
  <g id="Corps">
    <path transform="translate(-.9 -.9)" class="" d="M399 931v31c-6.85 10.89-18.23 14.7-29.46 18.61a202.83 202.83 0 01-24 6.45c-33.77 7.33-68.06 10.2-102.47 12.07-5 0-10.07-.84-15 .92L212 1000c-1.27-1.56-3-1-4.63-1-5.79-.06-11.58 0-17.37 0a50.18 50.18 0 00-13.15-2c-5.82-.18-11.7.42-17.45-.25-13.91-1.63-27.75-3.85-41.64-5.75-19.53-2.63-38.76-6.64-57.41-13.1-11.65-4-22.3-9.37-23.25-23.62l.51.17c4.92 1.53 9.82 3.14 14.82 4.44C92 969.17 132.38 973 173 974.27a765.38 765.38 0 0084.31-1.64c25.93-2 51.69-5 77.1-10.57 16.29-3.54 32.36-8 47.22-15.82 6.96-3.68 13.52-7.96 17.37-15.24z"></path>
    <path d="M399 928v3c-4 2.5-6.49 6.6-10.37 9.29-12.09 8.4-25.83 12.83-39.78 16.67-20 5.5-40.44 8.64-61 11.23a590.79 590.79 0 01-61 4.61c-32.07.71-64.15.61-96.15-2.65q-19.53-2-38.95-4.72c-18.56-2.63-36.7-7.19-54.75-12.35L31 951c-1.78-2.33-5.28-1.58-7-4-.23-4.37-.17-8.7 2.86-12.29a42.32 42.32 0 0114-11.06c15.94-7.68 33-12 50.18-15.57 12.92-2.72 25.92-5.13 39.13-6.18 4-.32 6.14-2.42 7.1-6.84 1.06-4.88-.24-9.92 1.46-14.62.39-.16.77-.33 1.16-.52a6.61 6.61 0 001.54-4.11c1.82-20 3.29-40 5.15-60 .93-10.09 1.44-20.21 2.66-30.26a72.79 72.79 0 0017.35 5.57c4.15.89 8.54-.28 12.45 1.8-1.62 0-2.86.29-3 2.4-.59 7.75-1.37 15.48-2 23.23-.74 9.57-1.14 19.18-2.14 28.72-1.62 15.47-2.81 31-3.92 46.47-.67 9.25-1.45 18.48-2.16 27.72-1.25 16.24 3.41 19.93 15.93 22.38 16.42 3.23 33 4.72 49.81 3.15 8.76-.82 17.48-1.62 25.88-4.34s9.61-5.44 8.41-14.12c-1.36-9.82-1.88-19.75-2.77-29.62 4.54 1.29 9.21 1.25 13.83 1a91.15 91.15 0 0119.3 1.34c16.12 2.45 32.36 4.05 48.4 7.4a330.4 330.4 0 0147.68 13.54c2.56.95 4.71 2.24 4.8 5.61.05 2.9 1.25.07 1.91.2z" transform="translate(-.9 -.9)" class="cls-2"></path>
    <path d="M399 923v5c-1.59-4.66-5.14-7-9.63-8.42-2.05-.64-4.05-1.49-6.1-2.17-38.16-12.62-77.54-17.77-117.52-19.29a4.27 4.27 0 00-2.73.59l-1.83-18.14c2.71 1.36 5.75 1.44 8.65 1.66a477.16 477.16 0 0163.07 9.32c16.11 3.46 32 7.61 46.75 15.36 6.49 3.42 12.82 7.15 16.27 14.15.58 1.19 1.4 2.33 3.07 1.94z" transform="translate(-.9 -.9)" class="cls-3"></path>
    <path d="M399 928c-.66-.13-1.86 2.7-1.94-.17-.09-3.37-2.24-4.66-4.8-5.61a330.4 330.4 0 00-47.68-13.54c-16-3.35-32.28-4.95-48.4-7.4a91.15 91.15 0 00-19.3-1.34c-4.62.29-9.29.33-13.83-1v-.27a4.27 4.27 0 012.73-.59c40 1.52 79.36 6.67 117.52 19.29 2.05.68 4.05 1.53 6.1 2.17 4.46 1.46 8.01 3.8 9.6 8.46z" transform="translate(-.9 -.9)" class="cls-3"></path>
    <path d="M399 923c-1.67.39-2.49-.75-3.07-1.94-3.45-7-9.78-10.73-16.27-14.15C365 899.16 349 895 332.91 891.55a477.16 477.16 0 00-63.07-9.32c-2.9-.22-5.94-.3-8.65-1.66 0-.27-.05-.53-.08-.8 25.43 2.58 50.82 5.38 75.78 11.18a222.75 222.75 0 0130.5 9c12.61 4.9 25 9.99 31.61 23.05z" transform="translate(-.9 -.9)" class="cls-3"></path>
    <path d="M388.63 940.29c3.88-2.69 6.37-6.79 10.37-9.29-3.85 7.28-10.41 11.56-17.36 15.24-14.86 7.86-30.93 12.28-47.22 15.82-25.41 5.52-51.17 8.52-77.1 10.57a765.38 765.38 0 01-84.32 1.64c-40.63-1.26-81-5.1-120.58-15.38-5-1.3-9.9-2.91-14.82-4.44l-.51-.17q0-.59-.06-1.2c18 5.16 36.15 9.72 54.73 12.35q19.42 2.76 39 4.72c32 3.26 64.08 3.36 96.15 2.65a590.79 590.79 0 0061-4.61c20.57-2.59 41-5.73 61-11.23 13.89-3.84 27.63-8.27 39.72-16.67z" transform="translate(-.9 -.9)" class=""></path>
    <path d="M290 71.6c-1.86 0-2.7 1.28-3.44 2.71-1.13-.9-2.51 0-3.73.28-15.46 3.23-30.93 6.38-46.35 9.81-14.63 3.25-29.43 5.72-43.91 9.67a1.41 1.41 0 00-1.11-.19c1.46-1.95 1.65-4.31 1.91-6.62 1.92-17 4.49-33.92 6.4-50.92.44-4 1.05-7.78 3.39-11h.34c3.2-.47 6.64-.47 8.35-3.88 1 1.55 2.67 2.37 4.17 3.32 24.79 15.66 49.4 31.63 73.98 46.82z" transform="translate(-.9 -.9)" class="cls-4"></path>
    <path d="M287.22 75.14L239.94 235c-.38.15-.76.28-1.15.4a2.11 2.11 0 000-.25c8.11-28.69 16.82-57.21 25.17-85.84 6.54-22.38 13.28-44.71 19.8-67.1.66-2.24 1.3-4.48 2.14-6.65a1.19 1.19 0 00.08-.16zm0 0l-1.22.25c.19-.36.37-.72.55-1.08a2.79 2.79 0 01.67.83z" transform="translate(-.9 -.9)" class=""></path>
    <path d="M286.55 74.31c-.18.36-.36.72-.55 1.08-29.53 6-58.95 12.58-88.47 18.68-1.48.31-3 .82-4.46.44l-.23-.24a1.62 1.62 0 00-.28-.2c14.48-3.95 29.28-6.42 43.91-9.67 15.42-3.43 30.89-6.58 46.35-9.81 1.18-.26 2.6-1.18 3.73-.28z" transform="translate(-.9 -.9)" class=""></path>
    <path d="M286 75.39a1.19 1.19 0 01-.08.16c-.84 2.17-1.48 4.41-2.14 6.65-6.52 22.39-13.26 44.72-19.8 67.1-8.35 28.63-17.06 57.15-25.17 85.84a2.11 2.11 0 010 .25c-4.08 1.29-8.32 1.08-12.54 1.08-6.64 0-13.27-.05-19.9 0-2 0-4.1-.21-5.81 1.15 1-1.66.79-3.55.54-5.45-1.06-3.54-.71-7.14-.54-10.74.48-11.34-.75-22.62-1.37-33.91q-1.28-23.16-2.52-46.32c-.75-14.12-1.75-28.23-2.19-42.36a6.47 6.47 0 00-1.39-4.35c1.5.38 3-.13 4.46-.44C227.05 88 256.47 81.4 286 75.39zm-9.85 18.72c2-6.22 1.65-6.78-4.81-5.7-19.53 3.24-39.06 6.48-58.5 10.22-14.33 2.75-13.16-.85-11.81 16.1s2.43 34.15 3.59 51.23c1.09 16.25 1.24 32.57 3.32 48.75.52 4.07-1.53 9.39 1.5 11.91s8.36.4 12.89 1.06a36.74 36.74 0 015.73 0c4.82.75 6.74-1.31 8.17-5.93 13.14-42.56 26.58-85.09 39.92-127.64z" transform="translate(-.9 -.9)"></path>
    <path d="M271.34 88.41c6.46-1.08 6.76-.52 4.81 5.7-13.34 42.55-26.78 85.08-39.92 127.69-1.43 4.62-3.35 6.68-8.17 5.93a36.74 36.74 0 00-5.73 0c-4.53-.66-9.78 1.51-12.89-1.06s-1-7.84-1.5-11.91c-2.08-16.18-2.23-32.5-3.32-48.75-1.16-17.08-2.23-34.16-3.59-51.23s-2.52-13.35 11.81-16.1c19.44-3.79 38.97-7.03 58.5-10.27z" transform="translate(-.9 -.9)" class="cls-5"></path>
    <path d="M265.82 928.6c1.2 8.68 0 11.4-8.41 14.12s-17.12 3.52-25.88 4.34c-16.79 1.57-33.39.08-49.81-3.15-12.52-2.45-17.18-6.14-15.93-22.38.71-9.24 1.49-18.47 2.16-27.72 1.11-15.51 2.3-31 3.92-46.47 1-9.54 1.4-19.15 2.14-28.72.61-7.75 1.39-15.48 2-23.23.16-2.11 1.4-2.37 3-2.4l.11.1a.74.74 0 010 .21c-2.17 3.77-2.13 8-2.47 12.13q-3.48 41.27-6.95 82.53c-1 12.1-2 24.2-2.79 36.32-.62 10 3.23 15.27 12.93 17.8a123.94 123.94 0 0019.72 3c18.49 1.76 36.89 1.79 55-3.09 9.6-2.59 10.55-4.48 9.48-14.19-.91-8.26-1.3-16.58-2.24-24.84a5.72 5.72 0 01.77-3.85 2 2 0 01.42-.36l.09.22c.86 9.88 1.38 19.81 2.74 29.63z" transform="translate(-.9 -.9)" class="cls-6"></path>
    <path d="M264 927.81c1.07 9.71.12 11.6-9.48 14.19-18.09 4.88-36.49 4.85-55 3.09a123.94 123.94 0 01-19.72-3c-9.7-2.53-13.55-7.82-12.93-17.8.75-12.12 1.79-24.22 2.79-36.32q3.42-41.26 6.95-82.53c.34-4.09.3-8.36 2.47-12.13a.74.74 0 000-.21c2.11 1.83 4.68 1.39 7.17 1.38 8.87-.11 17.74-.09 26.6 0 1.53-.08 3.06-.17 4.11-1.45 1.4 1.51 3.28 1.48 5.05 1.29 7.92-.86 15.8-2 23.35-4.66 2-.7 4.18-1.33 5.63-3 .76 7.08 1.13 14.21 1.77 21.31 1.69 18.85 3.12 37.72 4.79 56.57.46 5.19-.21 10.68 2.64 15.5a6.4 6.4 0 00.76.43 31.49 31.49 0 002 18.3 2 2 0 00-.42.36 5.72 5.72 0 00-.77 3.85c.95 8.25 1.34 16.57 2.24 24.83zm-8.7 3c3.12-.19 3.86-2.71 3.67-5.49v-1c-2-20.22-4.08-40.44-5.9-60.67-1.53-17.13-2.78-34.29-4-51.44-.23-3.12-1.24-5.2-4.63-5.21-3.81 0-3.57 2.87-3.37 5.35.56 6.75 1.38 13.48 1.94 20.23 1.08 13.18 2 26.39 3.1 39.57 1.55 17.78 3.32 35.53 4.87 53.31.23 3.04.87 5.6 4.33 5.38zm-22.3 0v-8.49c-.16-4.47-.62-9-.78-13.37-.74-20.37-2.33-40.7-3.11-61.06-.36-9.11-1.75-18.19-1.21-27.35a10.46 10.46 0 00-1-4.32c-1.25-3.11-3.57-4.87-7-4.2s-5 2.95-4.9 6.46c.11 4.63.63 9.27.82 13.86.8 20.2 2 40.37 3.09 60.56.66 12.74 1 25.49 2.07 38.2.36 4.3 3.18 5.82 6.75 5.71 3.41-.05 5.27-2.4 5.27-5.94z" transform="translate(-.9 -.9)" class="cls-6"></path>
    <path d="M263 898.71v.27l-.09-.22.09-.05zm-1.81-18.14l1.81 18.14h-.06a31.49 31.49 0 01-2-18.3 1 1 0 00.25.16z" transform="translate(-.9 -.9)" class="cls-6"></path>
    <path d="M261.11 879.77c0 .27.05.53.08.8a1 1 0 01-.2-.11z" transform="translate(-.9 -.9)" class="cls-6"></path>
    <path d="M261.11 879.77l-.12.69a6.4 6.4 0 01-.76-.43c-2.85-4.82-2.18-10.31-2.64-15.5-1.67-18.85-3.1-37.72-4.79-56.57-.64-7.1-1-14.23-1.77-21.31a5.8 5.8 0 001.07-1.7c.93 9.38 2 18.75 2.75 28.13q2.72 31.73 5.21 63.47a6.35 6.35 0 001.05 3.22z" transform="translate(-.9 -.9)" class="cls-6"></path>
    <path d="M259 925.35c.19 2.78-.55 5.3-3.67 5.49-3.46.22-4.1-2.34-4.36-5.35-1.55-17.78-3.32-35.53-4.87-53.31-1.15-13.18-2-26.39-3.1-39.57-.56-6.75-1.38-13.48-1.94-20.23-.2-2.48-.44-5.36 3.37-5.35 3.39 0 4.4 2.09 4.63 5.21 1.25 17.15 2.5 34.31 4 51.44 1.82 20.23 3.92 40.45 5.9 60.67.04.33.04.65.04 1z" transform="translate(-.9 -.9)" class=""></path>
    <path d="M249.28 712.12c1.05 24.27 2.84 48.52 2.82 72.83l-1.18.63c0-.31-.06-.61-.1-.92-1-9.45-.73-19-1.09-28.42-.74-18.94-1.65-37.89-2.49-56.83-.8-17.93-1.17-35.9-2.62-53.81-.65-8-.6-16-.89-23.93-.41-11.14-1-22.28-1.46-33.41-.77-19.1-1.27-38.26-2.62-57.26-.56-8-.7-16-.89-23.93-.3-12.31-.89-24.63-1.46-36.91-.85-18.06-1-36.16-2.57-54.2-.72-8.27-.53-16.6-.84-24.89-.45-11.46-.9-22.94-1.49-34.37-.92-17.9-1.37-35.82-2.51-53.72-.36-5.6-.69-11.23-.93-16.86v-7.42c0-1.42.43-3.39-.36-4.5v-2.71a2 2 0 00.73.47 2.74 2.74 0 00.5.07l3.2 69.33q3.38 75.62 6.68 151.22 2.28 51.91 4.49 103.82l5.08 115.72z" transform="translate(-.9 -.9)" class="cls-2"></path>
    <path d="M252.1 785a5.8 5.8 0 01-1.07 1.7c0-.36-.07-.72-.11-1.07z" transform="translate(-.9 -.9)" class="cls-6"></path>
    <path d="M250.92 785.58c0 .35.08.71.11 1.07-1.45 1.64-3.63 2.27-5.63 3-7.55 2.64-15.43 3.8-23.35 4.66-1.77.19-3.65.22-5.05-1.29 11.8-.49 23.32-2.02 33.92-7.44z" transform="translate(-.9 -.9)" class="cls-6"></path>
    <path d="M250.82 784.66c0 .31.07.61.1.92-10.6 5.42-22.12 6.95-33.92 7.42l.18-.26c-.59-2.75-2.91-2.86-5-3.3-5.07-1-10.27-1-15.37-1.85-14.37-2.45-16.32-4.58-16.22-19.29.19-26.47 1.68-52.9 2.84-79.34.77-17.63 1.27-35.27 2-52.9 1-25.61 1.11-51.26 2.12-76.88.67-17-.09-34 .83-50.95 1-19.28.08-38.62 1.12-57.94.9-16.62 0-33.28.86-49.95 1.06-21.27.21-42.62 1.1-63.94.77-18.29-.2-36.64 1.14-54.94.2-2.72.4-5.33 2.59-7.3.15-.26.29-.51.41-.75 3.44 2.31 4.12 5.74 4 9.81-.23 7.81-.21 15.63 0 23.43.06 2.26-1.05 6.1 1.37 6.81a2.77 2.77 0 00.91.13c3.22 0 2.63-4.45 2.55-7.12-.28-10 1.53-19.88 1.16-29.86-.11-2.67.11-5.83 2.8-7.05 5.24-2.37 11-2 16.66-2.36 2.74-.16 2.25 2.94 3.59 4.29 0 .55-.07 1.09 0 1.62v1.09a2.41 2.41 0 00-2.25-.84c-3.4.15-2.33 3.49-2.33 5.62 0 8.47.49 16.94.76 25.4.62 18.93 1.45 37.86 2 56.79.66 22.27 1.74 44.52 2.11 66.79.23 14.31 1.73 28.58 1.16 42.9-.05 1.16-.08 2.35.92 3.24l.06 9c.44 6.67-1.12 13.44.93 20-.12 19.62 1.17 39.2 1.83 58.79l2 60.29c.62 18.6 1.33 37.19 2 55.79.68 19.76 1.3 39.52 2 59.28.41 11.46.66 22.93 1.16 34.39.08 1.83-.14 4.11 2.37 4.21 3 .11 2.67-2.4 2.65-4.36-.06-7.81-.52-15.61-.77-23.41-.6-18.76-1.37-37.52-2-56.28l-2-57.79c-.64-18.76-1.34-37.52-2-56.28-.68-19.6-1.41-39.19-2-58.79-.39-13.63-1.38-27.24-1.32-40.88-.32-4.35 1.06-8.82-.89-13.06q0-6.45-.11-12.91c.18-6.15-.54-12.28-.7-18.4-.48-19.11-1.34-38.2-2-57.3-.68-18.93-1.43-37.87-1.94-56.8-.31-11.16-1.13-22.31-1.28-33.47.24 5.63.57 11.26.93 16.86 1.14 17.9 1.59 35.82 2.51 53.72.59 11.43 1 22.91 1.49 34.37.31 8.29.12 16.62.84 24.89 1.57 18 1.72 36.14 2.57 54.2.57 12.28 1.16 24.6 1.46 36.91.19 8 .33 16 .89 23.93 1.35 19.08 1.85 38.21 2.62 57.31.45 11.13 1 22.27 1.46 33.41.29 8 .24 16 .89 23.93 1.45 17.91 1.82 35.88 2.62 53.81.84 18.94 1.75 37.89 2.49 56.83.32 9.41.02 18.92 1.05 28.37zm-29.53-5c3.14.12 4.75-2.54 4.73-5.83v-12c0-6.15-.56-12.27-.83-18.4-.85-19.44.29-38.91-1-58.39-1.21-18.24.2-36.56-1-54.88-1.25-19.58.23-39.24-1.05-58.88-1.18-17.92.25-35.9-1-53.89-1.26-18.74.24-37.57-1-56.38s-.12-37.9-.89-56.88c-.92-22.59-.78-45.25-1.17-67.87-.33-19-.3-37.93-1.09-56.88-.09-2.17-.49-4-2.56-5a3.44 3.44 0 00-3.74.49c-1.89 1.42-1.79 3.44-1.73 5.45.57 19.62-.51 39.24.81 58.89s-.32 39.56 1 59.37c1.25 18.41-.24 36.9 1 55.38 1.32 20.08-.33 40.24 1 60.38 1.25 18.58-.27 37.24 1 55.89 1.29 19.24.45 38.57.85 57.87.58 28.12 1.55 56.25 1.29 84.38-.2 20.31 1.77 40.57 1.05 60.88v.5c-.1 3.14 1.56 5.69 4.33 5.79z" transform="translate(-.9 -.9)" class="cls-2"></path>
    <path d="M246 771.44c0 2 .3 4.47-2.65 4.36-2.51-.1-2.29-2.38-2.37-4.21-.5-11.46-.75-22.93-1.16-34.39-.72-19.76-1.34-39.52-2-59.28-.64-18.6-1.35-37.19-2-55.79l-2-60.29c-.66-19.59-2-39.17-1.83-58.79.15-3.59-.11-7.26.55-10.75s.53-6.43-1.48-9.29l-.06-9c-.31-6.72 3.14-13 2.18-19.82-.14-1 .83-1.72 1.75-2.19q.06 6.46.11 12.91c-.33 3.56.59 7.19-.73 10.7-.53 1.39.22 2.16 1.62 2.36-.06 13.64.93 27.25 1.32 40.88.56 19.6 1.29 39.19 2 58.79.65 18.76 1.35 37.52 2 56.28l2 57.79c.68 18.76 1.45 37.52 2 56.28.23 7.84.69 15.64.75 23.45z" transform="translate(-.9 -.9)" class="cls-7"></path>
    <path d="M243 999.13a5.82 5.82 0 01-2.78.9c-2.35 0-4.71-.11-7.06 0 .49-.92 1.79-.33 2.63-.43 2.42-.35 4.88.34 7.21-.47z" transform="translate(-.9 -.9)" class="cls-8"></path>
    <path d="M243 999.13c-2.36.81-4.82.12-7.21.42-.84.1-2.14-.49-2.63.43a33.26 33.26 0 00-5.26.46 1 1 0 01.12-.39c4.98-1.76 9.98-.92 14.98-.92z" transform="translate(-.9 -.9)" class="cls-8"></path>
    <path d="M239.94 235c.57 4.08-2.05 7-4.2 9.76a28.27 28.27 0 00-5.88 21.77 45.21 45.21 0 010 5.46c-1-.89-1-2.1-.86-3.24a3.94 3.94 0 00-.72-3.15 35.85 35.85 0 018.53-25 8.65 8.65 0 001.79-3.81 5.67 5.67 0 001.34-1.79z" transform="translate(-.9 -.9)" class="cls-9"></path>
    <path d="M240.25 1000c-2.44.22-5.05-.52-7.25 1a2.22 2.22 0 01.19-1c2.35-.08 4.71 0 7.06 0z" transform="translate(-.9 -.9)" class="cls-8"></path>
    <path d="M238.79 235.39c.39-.12.77-.25 1.15-.4a5.67 5.67 0 01-1.34 1.82 9.51 9.51 0 00.19-1.42z" transform="translate(-.9 -.9)" class=""></path>
    <path d="M238.79 235.39a9.51 9.51 0 01-.19 1.42 5.7 5.7 0 01-4.11 1.2c-11.38-.19-22.76-.09-34.14-.09l.19-.27c1.71-1.36 3.81-1.13 5.81-1.15 6.63-.07 13.26 0 19.9 0 4.22-.03 8.46.18 12.54-1.11z" transform="translate(-.9 -.9)" class=""></path>
    <path d="M238.6 236.81a8.65 8.65 0 01-1.79 3.81 35.85 35.85 0 00-8.53 25c-.69-.74-1.87-.86-3.44-.32-2.79 1-5.6.52-8.39.76-11.66 1-12.55 1.87-12.42 13.54.12 10.3-1.75 20.52-1.06 30.84.07 1.1.16 2.42-2 2.8 0-11.37-.1-22.64.05-33.91.06-4.12-1.31-6.39-5.28-6.36 2.21-4.45.83-6.55-4.47-7.34-6.45-1-13.17-.55-19.29-3.28 2.09-8.95-1.74-16.2-6.78-23.09 10.62.76 21.26.27 31.88.15a5.06 5.06 0 002.79-.93 4.26 4.26 0 00.44-.53c11.38 0 22.76-.1 34.14.09a5.7 5.7 0 004.15-1.23z" transform="translate(-.9 -.9)" class="cls-9"></path>
    <path d="M235 465c1.95 4.24.57 8.71.89 13.06-1.62-4.31.68-8.84-.89-13.06z" transform="translate(-.9 -.9)" class="cls-10"></path>
    <path d="M235 465c1.55 4.27-.75 8.8.89 13.06-1.4-.2-2.15-1-1.62-2.36 1.34-3.56.42-7.19.73-10.7zm-.79-31.36c.16 6.12.88 12.25.7 18.4a2.49 2.49 0 00-2.92 2.59c0 6.5-2.22 12.87-1 19.42-1-.89-1-2.08-.92-3.24.57-14.32-.93-28.59-1.16-42.9-.37-22.27-1.45-44.52-2.11-66.79-.56-18.93-1.39-37.86-2-56.79-.27-8.46-.75-16.93-.76-25.4 0-2.13-1.07-5.47 2.33-5.62a2.41 2.41 0 012.25.84c.06 4 .19 8 .36 11.92.15 11.16 1 22.31 1.28 33.47.51 18.93 1.26 37.87 1.94 56.8.67 19.1 1.53 38.19 2.01 57.3z" transform="translate(-.9 -.9)" class="cls-10"></path>
    <path d="M232 454.63a2.49 2.49 0 012.92-2.59c-.92.47-1.89 1.21-1.75 2.19 1 6.81-2.49 13.1-2.18 19.82-1.22-6.55 1.01-12.92 1.01-19.42z" transform="translate(-.9 -.9)" class="cls-10"></path>
    <path d="M233 922.38v8.49c0 3.54-1.87 5.89-5.29 6-3.57.11-6.39-1.41-6.75-5.71-1-12.71-1.41-25.46-2.07-38.2-1.05-20.19-2.29-40.36-3.09-60.56-.19-4.59-.71-9.23-.82-13.86-.08-3.51 1.5-5.8 4.9-6.46s5.77 1.09 7 4.2a10.46 10.46 0 011 4.32c-.54 9.16.85 18.24 1.21 27.35.78 20.36 2.37 40.69 3.11 61.06.2 4.42.66 8.9.8 13.37z" transform="translate(-.9 -.9)" class="" fill="#050505"></path>
    <path d="M233.19 1000a2.22 2.22 0 00-.19 1h-5a1 1 0 01-.07-.56 33.26 33.26 0 015.26-.44z" transform="translate(-.9 -.9)" class="cls-8"></path>
    <path d="M231 483c2 2.86 2.13 5.86 1.48 9.29s-.4 7.16-.55 10.75c-.9-3.57-.6-7.21-.23-10.79a21.87 21.87 0 00-.7-9.25z" transform="translate(-.9 -.9)" class="cls-10"></path>
    <path d="M231 483a21.87 21.87 0 01.7 9.25c-.37 3.58-.67 7.22.23 10.79-2.01-6.59-.45-13.36-.93-20.04z" transform="translate(-.9 -.9)" class="cls-10"></path>
    <path d="M229.86 272a2.74 2.74 0 01-.5-.07 2 2 0 01-.73-.47 11.18 11.18 0 000-1.83c-.17-1.36-.29-2.7-.33-4a3.94 3.94 0 01.72 3.15c-.12 1.1-.17 2.31.84 3.22z" transform="translate(-.9 -.9)" class="cls-2"></path>
    <path d="M228.6 274.15c.79 1.11.39 3.08.36 4.5v7.42c-.17-3.97-.3-7.95-.36-11.92z" transform="translate(-.9 -.9)" class="cls-10"></path>
    <path d="M228.61 269.61a11.18 11.18 0 010 1.83c-1.34-1.35-.85-4.45-3.59-4.29-5.62.32-11.42 0-16.66 2.36-2.69 1.22-2.91 4.38-2.8 7.05.37 10-1.44 19.87-1.16 29.86.08 2.67.67 7.11-2.55 7.12a2.77 2.77 0 01-.91-.13v-.2c2.12-.38 2-1.7 2-2.8-.69-10.32 1.18-20.54 1.06-30.84-.13-11.67.76-12.54 12.42-13.54 2.79-.24 5.6.2 8.39-.76 1.57-.54 2.75-.42 3.44.32.07 1.32.19 2.66.36 4.02z" transform="translate(-.9 -.9)" class="cls-2"></path>
    <path d="M212 1000h16.05q-.18 0-.36.3a.19.19 0 000 .12c-5.09 0-10.18.1-15.27-.05a.81.81 0 00-.42-.37z" transform="translate(-.9 -.9)" class="cls-12"></path>
    <path d="M228 1001h-16c.12 0 .23-.11.35-.32a.3.3 0 000-.26c5.09.15 10.18 0 15.27.05-.01.17.12.35.38.53zm.05-.95a1 1 0 00-.12.39h-.28a.19.19 0 010-.12q.22-.27.4-.27z" transform="translate(-.9 -.9)" class="cls-12"></path>
    <path d="M227.93 1000.44a1 1 0 00.07.56c-.26-.18-.39-.36-.35-.53h.09z" transform="translate(-.9 -.9)" class="cls-12"></path>
    <path d="M226 773.82c0 3.29-1.59 5.95-4.73 5.83-2.77-.1-4.43-2.67-4.29-5.78v-.5c.72-20.31-1.25-40.57-1.05-60.88.26-28.13-.71-56.26-1.29-84.38-.4-19.3.44-38.63-.85-57.87-1.25-18.65.27-37.31-1-55.89-1.36-20.14.29-40.3-1-60.38-1.21-18.48.28-37-1-55.38-1.34-19.81.31-39.64-1-59.37s-.24-39.27-.81-58.89c-.06-2-.16-4 1.73-5.45a3.44 3.44 0 013.74-.49c2.07 1 2.47 2.82 2.56 5 .79 18.95.76 37.92 1.09 56.88.39 22.62.25 45.28 1.17 67.87.77 19-.37 38 .89 56.88s-.24 37.64 1 56.38c1.22 18-.21 36 1 53.89 1.28 19.64-.2 39.3 1.05 58.88 1.16 18.32-.25 36.64 1 54.88 1.29 19.48.15 39 1 58.39.27 6.13.85 12.25.83 18.4-.04 3.98-.04 7.98-.04 11.98z" transform="translate(-.9 -.9)" class="" fill="#161515"></path>
    <path d="M217.21 792.69l-.21.31c-3.19-3.58-7.74-2.4-11.58-2.74a131.79 131.79 0 01-19.52-3.45c-3.85-.93-6.7-6.69-6.87-12.76-.37-13.63.49-27.23 1-40.85.75-20.39 1.07-40.81 2.11-61.2 1-19.39 1.23-38.82 2.15-58.2.67-14.14-.25-28.3.94-42.34 1.31-15.64 0-31.27.89-46.86 1.11-20.28.08-40.6 1.17-60.83 1-18-.32-36 .92-53.84 1.36-19.63-.26-39.28 1-58.84 1.21-18.3.05-36.59 1-54.85.3-6.12.87-12.23.85-18.37 0-2.72 1.22-4.41 4-4.84.21.12.4.25.59.38-.12.24-.26.49-.41.75-2.19 2-2.39 4.58-2.59 7.3-1.34 18.3-.37 36.65-1.14 54.94-.89 21.32 0 42.67-1.1 63.94-.83 16.67 0 33.33-.86 49.95-1 19.32-.08 38.66-1.12 57.94-.92 17-.16 34-.83 50.95-1 25.62-1.13 51.27-2.12 76.88-.69 17.63-1.19 35.27-2 52.9-1.16 26.44-2.65 52.87-2.84 79.34-.1 14.71 1.85 16.84 16.22 19.29 5.1.87 10.3.8 15.37 1.85 2.07.39 4.39.5 4.98 3.25z" transform="translate(-.9 -.9)" class="cls-2"></path>
    <path d="M217 793zm0 0c-1.05 1.28-2.58 1.37-4.11 1.45-8.86-.06-17.73-.08-26.6 0-2.49 0-5.06.45-7.17-1.38a.17.17 0 000-.1h6.85c5.56 2.09 11.32.7 17 .87 3.33.1 6.87 1.1 10.05-.9h4z" transform="translate(-.9 -.9)" class="cls-6"></path>
    <path d="M217 793h-37.85c.09-1.63-1.27-2-2.44-2.08a89.75 89.75 0 01-27.29-6.17h-.08c.26-19.14 1.71-38.24 2.23-57.37.28-10.16.74-20.31 1.32-30.43 1.44-25.09 2.41-50.2 3.54-75.29.9-19.78 1.83-39.57 2.43-59.37.24-8.14.3-16.32.95-24.44 1.47-18.42 1.79-36.9 2.64-55.35.89-19.45 1.75-38.91 2.43-58.37.3-8.47.28-17 .94-25.44 1.41-17.93 1.92-35.91 2.63-53.86.73-18.62 1.75-37.24 2.46-55.87.32-8.29.21-16.62.89-24.91a3.19 3.19 0 002.18 1c5.69.61 11.35 1.5 17 1.95 5.05.39 5.62 1 4 6-2.76.43-4 2.12-4 4.84 0 6.14-.55 12.25-.85 18.37-.9 18.26.26 36.55-1 54.85-1.3 19.56.32 39.21-1 58.84-1.24 17.89.06 35.87-.92 53.84-1.09 20.23-.06 40.55-1.17 60.83-.85 15.59.42 31.22-.89 46.86-1.19 14-.27 28.2-.94 42.34-.92 19.38-1.16 38.81-2.15 58.2-1 20.39-1.36 40.81-2.11 61.2-.5 13.62-1.36 27.22-1 40.85.17 6.07 3 11.83 6.87 12.76a131.79 131.79 0 0019.52 3.45c3.88.32 8.43-.86 11.66 2.77z" transform="translate(-.9 -.9)" class="cls-14"></path>
    <path d="M206.58 2.94c8.49 3.31 10.31 8.36 5.93 16.21a7.27 7.27 0 00-.46 1.85l-.37.22a2.54 2.54 0 01-.16-.28c-.49-1.6.42-2.89.94-4.27 2.12-5.68.78-9-4.7-11.83-1.63-.86-4-1-3.76-3.84.34 1.34 1.51 1.52 2.58 1.94z" transform="translate(-.9 -.9)" class="cls-7"></path>
    <path d="M186 793h27a147.8 147.8 0 01-27 0z" transform="translate(-.9 -.9)" class="cls-2"></path>
    <path d="M207.76 4.84c5.48 2.87 6.82 6.15 4.7 11.83-.52 1.38-1.43 2.67-.94 4.27a2.54 2.54 0 00.16.28c-2.36 1.37-4.69 2.81-7.55 2.9-4.09-.71-8.88 1.13-12-3l.25-.38a4.37 4.37 0 00-.56-1.86c-4-7.67-3.09-10.5 4.41-14.49 1.36-.73 3.25-1.1 2.78-3.38h5c-.3 2.78 2.12 2.99 3.75 3.83z" transform="translate(-.9 -.9)" class="cls-7"></path>
    <path d="M212.38 1000.42a.3.3 0 010 .26c-.12.21-.23.32-.35.32v-.61h.24z" transform="translate(-.9 -.9)" class="cls-12"></path>
    <path d="M212.38 1000.42H212v-.42a.81.81 0 01.38.42z" transform="translate(-.9 -.9)" class="cls-12"></path>
    <path d="M211.68 21.22l.37-.22a4.91 4.91 0 01-.22.46 1 1 0 01-.15-.24z" transform="translate(-.9 -.9)" class="cls-4"></path>
    <path d="M212 1000.39v.61h-24a5.76 5.76 0 00-.11-.93 4.35 4.35 0 001.21-.27l1.44.17c7.15.29 14.32-.45 21.46.42z" transform="translate(-.9 -.9)" class="cls-15"></path>
    <path d="M212 1000v.36c-7.14-.87-14.31-.13-21.46-.42l-1.44-.17a1.69 1.69 0 00.9-.8h17.37c1.63.03 3.36-.5 4.63 1.03z" transform="translate(-.9 -.9)" class="cls-15"></path>
    <path d="M211.68 21.22a1 1 0 00.15.24c-1.71 3.41-5.15 3.41-8.35 3.88h-.34a13.91 13.91 0 011-1.22c2.86-.12 5.18-1.53 7.54-2.9z" transform="translate(-.9 -.9)" class="cls-4"></path>
    <path d="M213 793c-3.18 2-6.72 1-10.05.9-5.65-.17-11.41 1.22-17-.87A147.8 147.8 0 00213 793z" transform="translate(-.9 -.9)" class="cls-2"></path>
    <path d="M204.13 24.12a13.91 13.91 0 00-1 1.22h-2.59a5 5 0 013.59-1.22z" transform="translate(-.9 -.9)" class="cls-4"></path>
    <path d="M192.12 21.11c3.13 4.14 7.92 2.3 12 3a5 5 0 00-3.58 1.26 14.33 14.33 0 01-4.82-.61c-1.74-.59-3.69-1.09-3.93-3.19.12-.14.21-.3.33-.46z" transform="translate(-.9 -.9)" class="cls-16"></path>
    <path d="M200.55 25.38h2.59c-2.34 3.22-2.95 7-3.39 11-1.91 17-4.48 33.92-6.4 50.92-.26 2.31-.45 4.67-1.91 6.62a1.75 1.75 0 00-.35.11q3.65-29.35 7.31-58.69a46.32 46.32 0 00.59-4.93c.01-2.13.4-3.93 1.56-5.03z" transform="translate(-.9 -.9)" class="cls-4"></path>
    <path d="M201.08 232.19c.25 1.9.5 3.79-.54 5.45a3.82 3.82 0 00-.32.27l-.33-5.95c-.2-3.37.86-6.83-.84-10.07-.64-24.89-2.31-49.73-3.84-74.58-.64-10.28-.75-20.59-1.31-30.87-.4-7.44-1.13-14.85-1.72-22.28a4.9 4.9 0 00.89.34 6.47 6.47 0 011.39 4.35c.44 14.13 1.44 28.24 2.19 42.36q1.24 23.16 2.52 46.32c.62 11.29 1.85 22.57 1.37 33.91-.17 3.61-.54 7.21.54 10.75z" transform="translate(-.9 -.9)" class=""></path>
    <path d="M195.78 272.94c4 0 5.34 2.24 5.28 6.36-.15 11.27-.05 22.54-.05 33.91v.2c-2.42-.71-1.31-4.55-1.37-6.81-.22-7.8-.24-15.62 0-23.43.11-4.07-.57-7.5-4-9.81a4.11 4.11 0 00.14-.42z" transform="translate(-.9 -.9)" class="cls-2"></path>
    <path d="M195.73 24.77a14.33 14.33 0 004.82.61c-1.16 1.1-1.52 2.9-1.56 5a46.32 46.32 0 01-.59 4.93q-3.66 29.33-7.31 58.69-25.78-3.49-51.55-7c-6.88-.94-13.75-1.91-20.64-2.87-.84-1.51-3.1-1.54-3.73-3.28 1-1.52 2.47-2.32 3.78-3.3 20.45-15.31 40.73-30.84 61.13-46.23 4-3 8.69-5.48 11.72-9.74.2 2.1 2.2 2.6 3.93 3.19z" transform="translate(-.9 -.9)" class="cls-16"></path>
    <path d="M200.54 237.65l-.19.27h-.13a3.82 3.82 0 01.32-.27z" transform="translate(-.9 -.9)" class=""></path>
    <path d="M200.22 237.92h.13a4.26 4.26 0 01-.44.53 5.06 5.06 0 01-2.79.93c-10.62.12-21.26.61-31.88-.15l-.42-.57-.17-.2c1.3-.89 2.91-.42 4.36-.43 10.4-.09 20.81-.09 31.21-.11z" transform="translate(-.9 -.9)" class="cls-9"></path>
    <path d="M199.89 232l.33 5.95c-10.4 0-20.81 0-31.21.11-1.45 0-3.06-.46-4.36.43-2-2.42-2.85-5.41-3.69-8.37q-15.86-55.9-31.77-111.8c-3.13-11-5.72-22.08-9.74-32.78a9.14 9.14 0 003.67 1c17.28 2.12 34.53 4.43 51.8 6.6 5.35.67 10.69 2.51 16.21 1.19l.19-.23.86.14c.59 7.43 1.32 14.84 1.72 22.28.56 10.28.67 20.59 1.31 30.87 1.53 24.85 3.2 49.69 3.84 74.58.29 3.29-.96 6.77.84 10.03zm-11.36-3.5c5.64 1.39 7.44-.57 6.47-7-2.69-17.67-1.62-35.52-2.94-53.28-1.39-18.7-3.39-37.47-2.83-56.31a30.81 30.81 0 00-.46-4.46c-.43-3.54-2.42-5.24-6-5.09-11.84.49-23.51-2.61-35.38-2.16-4.49 0-9 .22-13.48-.07-3.34-.21-4.33.6-3.61 4.09 1.65 8 4.07 15.79 6.32 23.63q13.56 47.27 27.07 94.56c1 3.58 2.58 5.19 6.58 5.07 6.08-.19 12.16-.48 18.26.99z" transform="translate(-.9 -.9)" class="cls-17"></path>
    <path d="M199.05 221.9c1.7 3.24.64 6.7.84 10.07-1.07-3.29.37-6.79-.84-10.07z" transform="translate(-.9 -.9)" class="cls-9"></path>
    <path d="M199.05 221.9c1.21 3.28-.23 6.78.84 10.07-1.8-3.23-.55-6.71-.84-10.07z" transform="translate(-.9 -.9)" class="cls-9"></path>
    <path d="M199 1c.47 2.28-1.42 2.65-2.78 3.38-7.5 4-8.38 6.82-4.41 14.49a4.37 4.37 0 01.56 1.86l-.25.38a5 5 0 01-.32-.44c-6.21-7.79-4.6-14.09 4.58-17.73 1.07-.43 2.23-.64 2.62-1.94z" transform="translate(-.9 -.9)" class="cls-7"></path>
    <path d="M191.31 265.6c5.3.79 6.68 2.89 4.47 7.34h-.8c1.64-5 1.07-5.64-4-6-5.69-.45-11.35-1.34-17-1.95a3.19 3.19 0 01-2.18-1c0-.34.05-.67.08-1s.11-.44.16-.66c6.1 2.72 12.82 2.31 19.27 3.27z" transform="translate(-.9 -.9)" class="cls-9"></path>
    <path d="M195.78 272.94a4.11 4.11 0 01-.21.42c-.19-.13-.38-.26-.59-.38.28.02.55-.04.8-.04z" transform="translate(-.9 -.9)" class="cls-2"></path>
    <path transform="translate(-.9 -.9)" class="cls-5" d="M195 221.5c1 6.4-.83 8.36-6.47 7-6.1-1.5-12.18-1.18-18.26-1-4 .12-5.57-1.49-6.58-5.07q-13.44-47.31-27.07-94.56c-2.25-7.84-4.67-15.63-6.32-23.63-.72-3.49.27-4.3 3.61-4.09 4.48.29 9 .07 13.48.07 11.87-.45 23.54 2.65 35.38 2.16 3.58-.15 5.57 1.55 6 5.09a30.81 30.81 0 01.46 4.46c-.56 18.84 1.44 37.61 2.83 56.31 1.32 17.76.25 35.59 2.94 53.26z"></path>
    <path d="M192.84 94.27l.23.24a4.9 4.9 0 01-.89-.34l.37-.1a1.62 1.62 0 01.29.2z" transform="translate(-.9 -.9)" class=""></path>
    <path d="M192.55 94.07l-.37.1-.86-.14.12-.15a1.41 1.41 0 011.11.19z" transform="translate(-.9 -.9)" class="cls-4"></path>
    <path d="M192.12 21.11c-.1.16-.21.32-.32.47a4.6 4.6 0 010-.91 5 5 0 00.32.44z" transform="translate(-.9 -.9)" class="cls-16"></path>
    <path d="M191.8 20.67a4.6 4.6 0 000 .91c-3 4.26-7.69 6.7-11.72 9.74-20.4 15.39-40.68 30.92-61.08 46.23-1.31 1-2.81 1.78-3.78 3.3.63 1.74 2.89 1.77 3.73 3.28L118 84c-1.61-1.67-4.19-.73-6.41-2.33 10.91-8.29 21.58-16.38 32.23-24.48Q167.81 39 191.8 20.67z" transform="translate(-.9 -.9)" class="cls-16"></path>
    <path d="M191.44 93.88l-.12.15h-.23a1.75 1.75 0 01.35-.15z" transform="translate(-.9 -.9)" class="cls-4"></path>
    <path d="M191.32 94l-.19.23c-5.52 1.32-10.86-.52-16.21-1.19-17.27-2.17-34.52-4.48-51.8-6.6a9.14 9.14 0 01-3.67-1L119 84.4a1.69 1.69 0 00-.13-.27c6.89 1 13.76 1.93 20.64 2.87q25.77 3.51 51.55 7z" transform="translate(-.9 -.9)" class="cls-17"></path>
    <path d="M190 999a1.69 1.69 0 01-.9.8l-1.09-.12c.59-.42 1.45-.16 1.99-.68z" transform="translate(-.9 -.9)" class="cls-18"></path>
    <path d="M190 999c-.54.52-1.4.26-2 .68l-2.57-.28a21.83 21.83 0 00-9.43-.8c-1.6-.12-3.21-.22-4.82-.31l-3.36-.2a18.38 18.38 0 00-4.18-.28c-33.24-2.29-66.08-7.17-98.15-16.68-7.69-2.29-15.11-5.24-21.55-10.22-5.49-4.25-8.33-11-7.14-16.74a2.13 2.13 0 00.33.11c.95 14.25 11.6 19.58 23.25 23.62 18.62 6.46 37.85 10.47 57.38 13.1 13.89 1.9 27.73 4.12 41.64 5.75 5.75.67 11.63.07 17.45.25a50.18 50.18 0 0113.15 2zm-.9.8a4.35 4.35 0 01-1.21.27l-.2-.05c0-.06 0-.09.07-.09a1.12 1.12 0 01.25-.24z" transform="translate(-.9 -.9)" class="cls-18"></path>
    <path d="M188 1001h-16a1.53 1.53 0 00.2-.93h15.48a.85.85 0 000 .25.78.78 0 00.32.68z" transform="translate(-.9 -.9)" class="cls-19"></path>
    <path d="M187.89 1000.07a5.76 5.76 0 01.11.93.78.78 0 01-.35-.68.85.85 0 010-.25z" transform="translate(-.9 -.9)" class="cls-19"></path>
    <path d="M187.89 1000.07h-.21a.07.07 0 010-.05zm.11-.39a1.12 1.12 0 00-.25.24l-.07.09-2.25-.61z" transform="translate(-.9 -.9)" class="cls-18"></path>
    <path d="M187.69 1000a.07.07 0 000 .05H172.2v-.13a12.77 12.77 0 013.8-1.32c3.15.22 6.29.48 9.43.8z" transform="translate(-.9 -.9)" class="cls-18"></path>
    <path d="M176 998.6a21.83 21.83 0 019.43.8c-3.13-.32-6.27-.58-9.43-.8z" transform="translate(-.9 -.9)" class="cls-18"></path>
    <path d="M176.69 790.91c1.17.07 2.53.45 2.44 2.08H179c-3.91-2.08-8.3-.91-12.45-1.8a72.79 72.79 0 01-17.35-5.57c0-.3.07-.6.11-.9h.08a89.75 89.75 0 0027.3 6.19z" transform="translate(-.9 -.9)" class="cls-14"></path>
    <path d="M179.13 793a.17.17 0 010 .1l-.13-.1z" transform="translate(-.9 -.9)" class="cls-6"></path>
    <path d="M171.19 998.29c1.61.09 3.22.19 4.82.31a12.77 12.77 0 00-3.84 1.34 1.58 1.58 0 00-.32-.65 19.8 19.8 0 00-4-1.2z" transform="translate(-.9 -.9)" class="cls-18"></path>
    <path d="M172.2 1000.07a1.53 1.53 0 01-.2.93.91.91 0 00-.09-.93z" transform="translate(-.9 -.9)" class="cls-19"></path>
    <path d="M172.2 1000.07h-.29l.26-.13z" transform="translate(-.9 -.9)" class="cls-18"></path>
    <path d="M172.17 999.94l-.26.13a20.53 20.53 0 00-6.16-1.05 9.86 9.86 0 00-2.8-.32c-1.24-.13-2.5-.11-3.74-.24a21.56 21.56 0 014.4-.65l4.18.28a19.8 19.8 0 014 1.2 1.58 1.58 0 01.38.65z" transform="translate(-.9 -.9)" class="cls-18"></path>
    <path d="M171.91 1000.07a.91.91 0 01.09.93h-5a2.12 2.12 0 00-1.25-2 20.53 20.53 0 016.16 1.07z" transform="translate(-.9 -.9)" class="cls-20"></path>
    <path d="M165.24 239.23c5 6.89 8.87 14.14 6.78 23.09-.38-.18-.76-.36-1.14-.56 1.28-8.64-2.4-15.77-6.95-22.63z" transform="translate(-.9 -.9)" class="cls-9"></path>
    <path d="M172 262.32c-.05.22-.1.44-.16.66s-.06.67-.08 1a4.3 4.3 0 01-.9-2.23c.4.25.78.39 1.14.57z" transform="translate(-.9 -.9)" class="cls-9"></path>
    <path d="M170.88 261.76a4.3 4.3 0 00.9 2.23c-.68 8.29-.57 16.62-.89 24.91-.71 18.63-1.73 37.25-2.46 55.87-.71 18-1.22 35.93-2.63 53.86-.66 8.46-.64 17-.94 25.44-.68 19.46-1.54 38.92-2.43 58.37-.85 18.45-1.17 36.93-2.64 55.35-.65 8.12-.71 16.3-.95 24.44-.6 19.8-1.53 39.59-2.43 59.37-1.13 25.09-2.1 50.2-3.54 75.29-.58 10.12-1 20.27-1.32 30.43-.52 19.13-2 38.23-2.23 57.37a2.14 2.14 0 00-1.32.31c-.3-19 1.32-37.9 2.06-56.85q1.89-48.64 4.11-97.27 4.59-104.55 9.25-209.08 1.95-44.16 3.86-88.31l3-68.83a17.33 17.33 0 01.6-2.9z" transform="translate(-.9 -.9)" class="cls-14"></path>
    <path transform="translate(-.9 -.9)" class="" fill="#fefefe"></path>
    <path d="M165.75 999a2.12 2.12 0 011.25 2c-3.08-2.08-7 .17-10-1.88 2.88.06 5.83-.21 8.75-.12z" transform="translate(-.9 -.9)" class="cls-20"></path>
    <path d="M163 998.7a9.86 9.86 0 012.8.32c-2.92-.11-5.87.16-8.79.1q1.13-.39 2.25-.66c1.19.13 2.45.11 3.74.24zm.61-.89a18.38 18.38 0 014.18.28z" transform="translate(-.9 -.9)" class="cls-18"></path>
    <path d="M165.24 239.23l-1.31-.1a2.82 2.82 0 01.72-.67l.17.2z" transform="translate(-.9 -.9)" class="cls-9"></path>
    <path d="M164.65 238.46a2.82 2.82 0 00-.72.67c-2.71-1.64-3.11-4.53-3.87-7.21Q139 158 118 84a4 4 0 001.46 1.51c4 10.7 6.61 21.83 9.74 32.78q16 55.89 31.77 111.8c.83 2.96 1.64 5.91 3.68 8.37z" transform="translate(-.9 -.9)" class="cls-17"></path>
    <path d="M163.61 997.81a21.56 21.56 0 00-4.4.65 10.14 10.14 0 01-2.46-.54c-9.86-1.38-19.83-1.46-29.75-2.3a626 626 0 01-65.13-8.47l-.81-.14c-.17-1.6-1.82-2.1-3.05-2.82a78.29 78.29 0 00-7.64-3.6C37.85 975 29.89 966.4 31 951.94a55.36 55.36 0 005.82 2.23c-1.19 5.74 1.65 12.49 7.14 16.74 6.44 5 13.86 7.93 21.55 10.22 32.02 9.51 64.86 14.39 98.1 16.68z" transform="translate(-.9 -.9)" class="cls-18"></path>
    <path d="M159.21 998.46q-1.12.27-2.25.66c-31.26-1.58-62.39-4.29-93.17-10.17a25.23 25.23 0 01-2.79-.85 3 3 0 00.08-1.09l.81.14a626 626 0 0065.11 8.47c9.92.84 19.89.92 29.75 2.3a10.14 10.14 0 002.46.54z" transform="translate(-.9 -.9)" class="cls-18"></path>
    <path d="M149.32 784.72c0 .3-.08.6-.11.9L148 785a2.14 2.14 0 011.32-.28z" transform="translate(-.9 -.9)" class="cls-14"></path>
    <path d="M148 785l1.23.63c-1.22 10-1.73 20.17-2.66 30.26-1.86 20-3.33 40-5.15 60a6.61 6.61 0 01-1.54 4.11c-.39.19-.77.36-1.16.52.07-.21.15-.41.24-.62 1.9-4.88 1.51-10.08 1.95-15.13 2.23-25.6 4.26-51.22 6.39-76.84a18.58 18.58 0 01.7-2.93z" transform="translate(-.9 -.9)" class="cls-2"></path>
    <path d="M138.94 879.84c-.09.21-.17.41-.24.62l-.76.29a6.34 6.34 0 011-.91z" transform="translate(-.9 -.9)" class="cls-21"></path>
    <path d="M137.94 880.75l.76-.29c-1.7 4.7-.4 9.74-1.46 14.62-1 4.42-3.06 6.52-7.1 6.84-13.21 1.08-26.21 3.46-39.14 6.18-17.19 3.61-34.24 7.89-50.18 15.57a42.32 42.32 0 00-14 11.06c-3 3.59-3.09 7.92-2.86 12.29l-1-.32c-1.27-5.91.79-10.67 4.77-15 6.45-7 14.78-10.8 23.38-13.94 22.89-8.3 46.49-13.1 70.49-16.2q2-.27 4-.57c9.57-1.43 10.56-2.58 11.06-12.41.09-2.68-.66-5.58 1.28-7.83z" transform="translate(-.9 -.9)" class="cls-21"></path>
    <path d="M138.94 879.84a6.34 6.34 0 00-1 .91c-6.12 2.27-12.71 1.77-19.07 2.54-29.77 3.63-59.35 8-87.64 18.61a82.8 82.8 0 00-18.54 9.66 24.46 24.46 0 00-8.14 8.62C3.82 921.6 3.22 923.37 1 923c12.19-20.39 33.78-24.21 54-29.89 27.36-7.74 55.66-10.61 83.94-13.27z" transform="translate(-.9 -.9)" class="cls-21"></path>
    <path d="M137.94 880.75c-1.91 2.22-1.19 5.15-1.32 7.83-.5 9.83-1.49 11-11.06 12.41q-2 .3-4 .57c-24 3.1-47.64 7.9-70.42 16.22-8.6 3.14-16.93 7-23.38 13.94-4 4.31-6 9.07-4.77 15a21.75 21.75 0 01-2.26-.83C12.8 942.31 6.52 936.62 1 930v-7c2.22.37 2.82-1.4 3.55-2.82a24.46 24.46 0 018.14-8.62 82.8 82.8 0 0118.54-9.66c28.29-10.58 57.87-15 87.64-18.61 6.36-.77 12.95-.29 19.07-2.54z" transform="translate(-.9 -.9)" class="cls-21"></path>
    <path d="M119 84.4l.42 1.11A4 4 0 01118 84l.91.13a1.69 1.69 0 01.09.27z" transform="translate(-.9 -.9)" class="cls-17"></path>
    <path d="M61.06 987a3 3 0 01-.06 1.1 8.86 8.86 0 00-1.21-1.3q.63.12 1.27.2z" transform="translate(-.9 -.9)" class="cls-18"></path>
    <path d="M61.06 987q-.64-.09-1.29-.21c-2.65-2.43-6.23-3.25-9.36-4.83-8.81-4.48-17.77-9-19.76-20-.59-3.27-2.59-6.94-.19-10.28a3.37 3.37 0 01.32.19l.17.07c-1.06 14.46 6.9 23.07 19.42 28.65a78.29 78.29 0 017.64 3.6c1.23.72 2.88 1.22 3.05 2.81z" transform="translate(-.9 -.9)" class="cls-18"></path>
    <path d="M59.77 986.8a8.86 8.86 0 011.23 1.3c-16.67-2.81-32.85-7.11-48-14.89-5.16-2.64-8.61-6.83-12-11.21a1.81 1.81 0 012.22.66c7.75 11.16 20.24 14.1 32 18a160.56 160.56 0 0024.55 6.14z" transform="translate(-.9 -.9)" class="cls-22"></path>
    <path d="M50.41 982c3.13 1.58 6.71 2.4 9.36 4.83a160.56 160.56 0 01-24.58-6.11c-11.73-3.93-24.22-6.87-32-18A1.81 1.81 0 001 962v-32c4 8.45 11.39 13 19.32 16.92 1 .48 2 1 3.06.51 1.52 2.67 4.71 2.85 7.08 4.25-2.4 3.34-.4 7 .19 10.28 1.99 10.97 10.95 15.53 19.76 20.04z" transform="translate(-.9 -.9)" class="cls-22"></path>
    <path d="M37 953.08q0 .61.06 1.2a2.13 2.13 0 01-.33-.11 10.2 10.2 0 01.27-1.09zM31 951l6 2.11a10.2 10.2 0 00-.27 1.09 55.36 55.36 0 01-5.73-2.26V951z" transform="translate(-.9 -.9)" class="cls-18"></path>
    <path d="M31 951c0 .33-.06.65-.08 1l-.17-.07a3.37 3.37 0 00-.32-.19A5.22 5.22 0 0131 951z" transform="translate(-.9 -.9)" class="cls-18"></path>
    <path d="M31 951a5.22 5.22 0 00-.57.71c-2.37-1.4-5.56-1.58-7.08-4.25A2.56 2.56 0 0024 947c1.75 2.39 5.25 1.64 7 4z" transform="translate(-.9 -.9)" class="cls-22"></path>
    <path d="M24 947a2.56 2.56 0 01-.62.41 5 5 0 01-.34-.7zm-1-.27a5 5 0 00.34.7c-1.05.49-2.1 0-3.06-.51C12.39 943 5 938.45 1 930c5.52 6.62 11.8 12.31 19.77 15.87a21.75 21.75 0 002.26.83l-.03.03z" transform="translate(-.9 -.9)" class="cls-22"></path>
  </g>
  <path d="M188.53 228.68c-6.1-1.5-12.18-1.18-18.26-1-4 .12-5.57-1.49-6.58-5.07q-13.44-47.31-27.07-94.56c-2.25-7.84-4.67-15.63-6.32-23.63-.72-3.49.27-4.3 3.61-4.09 4.48.29 9 .07 13.48.07 11.87-.45 23.54 2.65 35.38 2.16 3.58-.15 5.57 1.55 6 5.09a30.81 30.81 0 01.46 4.46c-.56 18.84 1.44 37.61 2.83 56.31 1.32 17.76.25 35.61 2.94 53.28 1 6.41-.83 8.37-6.47 6.98zm33.8-.79c-4.53-.66-9.78 1.51-12.89-1.06s-1-7.84-1.5-11.91c-2.08-16.18-2.23-32.5-3.32-48.75-1.16-17.08-2.23-34.16-3.59-51.23s-2.52-13.35 11.81-16.1c19.44-3.74 39-7 58.5-10.22 6.46-1.07 6.76-.52 4.81 5.7-13.34 42.56-26.78 85.08-39.92 127.68-1.43 4.62-3.35 6.68-8.17 5.93a36.74 36.74 0 00-5.73-.04z" transform="translate(-.9 -.9)" id="Lumiere"></path>

</svg>