<?xml version="1.0" encoding="UTF-8" standalone="no"?>
<!-- Created with Inkscape (http://www.inkscape.org/) -->

<svg
   xmlns:dc="http://purl.org/dc/elements/1.1/"
   xmlns:cc="http://creativecommons.org/ns#"
   xmlns:rdf="http://www.w3.org/1999/02/22-rdf-syntax-ns#"
   xmlns:svg="http://www.w3.org/2000/svg"
   xmlns="http://www.w3.org/2000/svg"
   xmlns:sodipodi="http://sodipodi.sourceforge.net/DTD/sodipodi-0.dtd"
   xmlns:inkscape="http://www.inkscape.org/namespaces/inkscape"
   width="131.30038mm"
   height="221.41632mm"
   viewBox="0 0 131.30038 221.41632"
   version="1.1"
   id="svg1080"
   inkscape:version="0.92.4 (5da689c313, 2019-01-14)"
   sodipodi:docname="bulb2.svg">
  <defs
     id="defs3729">
    <filter
       id="softGlow"
       height="300%"
       width="300%"
       x="-75%"
       y="-75%">
      <!-- Thicken out the original shape -->
      <feMorphology
         operator="dilate"
         radius="8"
         in="SourceAlpha"
         result="thicken"
         id="feMorphology815" />
      <!-- Use a gaussian blur to create the soft blurriness of the glow -->
      <feGaussianBlur
         in="thicken"
         stdDeviation="31"
         result="blurred"
         id="feGaussianBlur817" />
      <!-- Change the colour -->
      <feFlood
         flood-color="#FAF796"
         result="glowColor"
         id="feFlood819"
         flood-opacity="1" />
      <!-- Color in the glows -->
      <feComposite
         operator="in"
         result="softGlow_colored"
         id="feComposite821"
         in="glowColor"
         in2="blurred" />
      <!--	Layer the effects together -->
      <feMerge
         id="feMerge827">
        <feMergeNode
           in="softGlow_colored"
           id="feMergeNode823" />
        <feMergeNode
           in="SourceGraphic"
           id="feMergeNode825" />
      </feMerge>
    </filter>
  </defs>
  <sodipodi:namedview
     id="base"
     pagecolor="#3a3a3a"
     bordercolor="#666666"
     borderopacity="1.0"
     inkscape:pageopacity="0"
     inkscape:pageshadow="2"
     inkscape:zoom="0.7"
     inkscape:cx="147.05447"
     inkscape:cy="380.4438"
     inkscape:document-units="mm"
     inkscape:current-layer="layer1"
     showgrid="false"
     inkscape:window-width="1280"
     inkscape:window-height="954"
     inkscape:window-x="0"
     inkscape:window-y="0"
     inkscape:window-maximized="1"
     objecttolerance="20"
     fit-margin-top="0"
     fit-margin-left="0"
     fit-margin-right="0"
     fit-margin-bottom="0"
     inkscape:pagecheckerboard="false" />
  <metadata
     id="metadata1077">
    <rdf:RDF>
      <cc:Work
         rdf:about="">
        <dc:format>image/svg+xml</dc:format>
        <dc:type
           rdf:resource="http://purl.org/dc/dcmitype/StillImage" />
        <dc:title />
      </cc:Work>
    </rdf:RDF>
  </metadata>
  <g
     inkscape:label="bulb"
     inkscape:groupmode="layer"
     id="layer1"
     transform="translate(-36.403382,-38.125166)">
    <g
       id="g1026"
       transform="matrix(2.9616911,0,0,-2.9616911,81.988889,54.41689)"
       style="fill:#ffffff;fill-opacity:1">
      <path
         d="m 0,0 c 0.377,0.29 4.826,2.422 6.722,2.624 1.895,0.21 3.615,-0.343 4.642,-1.387 1.026,-1.044 1.509,-5.282 1.518,-4.87 0.017,0.421 1.913,5.23 1.123,6.731 C 13.206,4.589 9.942,5.01 8.126,5.335 6.3,5.66 4.431,5.476 3.08,5.054 1.729,4.633 0.518,3.659 0,2.817 -0.509,1.974 -0.369,-0.29 0,0"
         style="fill:#ffffff;fill-opacity:1;fill-rule:evenodd;stroke:none"
         id="path1028"
         inkscape:connector-curvature="0" />
    </g>
    <g
       id="g1030"
       transform="matrix(2.9616911,0,0,-2.9616911,82.690807,55.586462)"
       style="fill:#ffffff;fill-opacity:1">
      <path
         d="M 0,0 C 0.588,0 3.229,-2.72 5.177,-3.571 7.134,-4.423 10.776,-4.51 11.723,-5.107 12.68,-5.704 11.952,-7.02 10.907,-7.152 9.863,-7.274 7.002,-6.344 5.449,-5.87 3.905,-5.405 2.545,-4.554 1.632,-3.571 0.728,-2.597 -0.597,0 0,0"
         style="fill:#ffffff;fill-opacity:1;fill-rule:evenodd;stroke:none"
         id="path1032"
         inkscape:connector-curvature="0" />
    </g>
    <g
       id="g1034"
       transform="matrix(2.9616911,0,0,-2.9616911,81.547299,72.219319)"
       style="fill:#ffffff;fill-opacity:1">
      <path
         d="m 0,0 c -0.237,-0.43 0,-4.975 1.983,-5.967 1.983,-0.992 9.021,-0.333 9.916,0 0.904,0.333 -3.115,1.562 -4.537,1.983 C 5.949,-3.554 4.581,-4.072 3.396,-3.413 2.22,-2.747 0.228,0.421 0,0"
         style="fill:#ffffff;fill-opacity:1;fill-rule:evenodd;stroke:none"
         id="path1036"
         inkscape:connector-curvature="0" />
    </g>
    <path
       style="opacity:1;fill:#f4ea87;fill-opacity:0;stroke:none;stroke-width:0.26458332px;stroke-linecap:butt;stroke-linejoin:miter;stroke-opacity:1"
       d="m 99.903381,101.92541 -18.142857,3.02381 -41.57738,74.83928 0.755952,29.86012 7.181548,21.16667 32.505952,22.30059 31.750004,-0.75595 34.01785,-12.47321 14.3631,-28.34822 3.77976,-28.72619 -7.55952,-32.50596 -18.14286,-26.08035 -20.41072,-20.78869 z"
       id="path1847"
       inkscape:connector-curvature="0"
       inkscape:label="bulb-light-container"
       sodipodi:nodetypes="cccccccccccccc"
       class="bulb-light-container" />
    <g
       id="g1038"
       transform="matrix(2.9616911,0,0,-2.9616911,82.768701,96.596702)"
       style="fill:#ffffff;fill-opacity:1">
      <path
         d="m 0,0 c 0.369,0.509 -12.934,-18.375 -14.9,-26.149 -1.974,-7.784 0.228,-15.743 3.089,-20.525 2.861,-4.783 9.135,-7.31 14.057,-8.152 4.923,-0.843 11.619,1.263 15.462,3.089 3.843,1.834 5.765,4.177 7.59,7.871 1.834,3.703 3.423,9.749 3.379,14.338 -0.044,4.598 -1.22,8.582 -3.659,13.215 -2.431,4.642 -8.811,12.092 -10.96,14.619 -2.159,2.536 -1.598,1.132 -1.975,0.571 -0.368,-0.571 -1.027,-2.536 -0.281,-3.94 0.755,-1.404 3.001,-2.483 4.783,-4.502 1.781,-2.009 4.361,-4.589 5.905,-7.59 1.545,-3.001 3.326,-6.046 3.37,-10.398 0.053,-4.362 -0.421,-11.855 -3.089,-15.752 -2.667,-3.887 -8.854,-6.37 -12.934,-7.59 -4.072,-1.211 -7.968,-1.123 -11.522,0.281 -3.562,1.413 -8.064,4.782 -9.845,8.161 -1.782,3.369 -1.782,7.59 -0.843,12.083 0.939,4.501 4.221,10.591 6.467,14.9 2.247,4.317 5.344,9.003 7.029,10.968 1.685,1.966 2.018,0.562 3.089,0.843 1.079,0.281 2.255,0.096 3.378,0.842 1.124,0.755 3.563,3.282 3.37,3.659 C 10.776,1.22 8.477,-0.474 6.467,-0.562 4.449,-0.658 -0.377,-0.518 0,0"
         style="fill:#ffffff;fill-opacity:1;fill-rule:evenodd;stroke:none"
         id="path1040"
         inkscape:connector-curvature="0"
         inkscape:label="bulb-glass"/>
    </g>
    <g
       id="g1046"
       transform="matrix(2.9616911,0,0,-2.9616911,94.125898,180.87844)"
       style="fill:#ffffff;fill-opacity:1;stroke:#f5f5f4;stroke-opacity:1">
      <path
         d="m 0,0 c 0.14,0.035 0.018,-1.676 0.412,-2.088 0.395,-0.404 1.94,-1.168 1.94,-0.369 0,0.799 -0.808,3.966 -1.94,5.151 C -0.72,3.879 -3.185,4.598 -4.431,4.66 -5.677,4.721 -6.722,3.633 -7.064,3.062 -7.415,2.492 -6.994,1.167 -6.511,1.229 -6.028,1.29 -4.344,3.492 -4.159,3.431 -3.975,3.37 -4.8,1.264 -5.405,0.86 -6.002,0.448 -7.503,0.342 -7.757,0.983 c -0.255,0.632 0,3.045 0.825,3.677 0.833,0.631 2.913,0.447 4.159,0.122 1.246,-0.324 2.404,-1 3.326,-2.088 C 1.474,1.615 2.633,-0.693 2.773,-1.72 2.905,-2.738 1.913,-3.334 1.386,-3.44 0.851,-3.536 -0.07,-2.966 -0.421,-2.334 -0.763,-1.702 -0.14,-0.044 0,0 Z"
         style="fill:#ffffff;fill-opacity:1;stroke:#f5f5f4;stroke-width:1.55999994;stroke-linecap:butt;stroke-linejoin:miter;stroke-miterlimit:10;stroke-dasharray:none;stroke-opacity:1"
         id="path1048"
         inkscape:connector-curvature="0" />
    </g>
    <g
       id="g1054"
       transform="matrix(2.9616911,0,0,-2.9616911,105.17123,177.5258)"
       style="fill:#ffffff;fill-opacity:1;stroke:#f5f5f4;stroke-opacity:1">
      <path
         d="M 0,0 C -0.026,-0.097 3.536,2.273 4.853,2.703 6.178,3.133 7.38,2.966 7.906,2.58 8.442,2.194 8.371,0.553 8.047,0.369 7.722,0.184 5.985,1.597 5.967,1.474 5.941,1.351 7.38,-0.307 7.906,-0.369 8.442,-0.43 9.108,0.597 9.161,1.106 9.205,1.615 8.88,2.334 8.187,2.703 7.494,3.071 6.336,3.668 4.993,3.317 3.65,2.966 0.026,0.105 0,0 Z"
         style="fill:#ffffff;fill-opacity:1;stroke:#f5f5f4;stroke-width:1.55999994;stroke-linecap:butt;stroke-linejoin:miter;stroke-miterlimit:10;stroke-dasharray:none;stroke-opacity:1"
         id="path1056"
         inkscape:connector-curvature="0" />
    </g>
    <g
       id="g1062"
       transform="matrix(2.9616911,0,0,-2.9616911,103.17002,115.67236)"
       style="opacity:1;fill:#ffffff;fill-opacity:1;stroke:#f5f5f4;stroke-opacity:1">
      <path
         d="m 0,0 c -0.097,-0.246 -0.676,-3.703 -0.421,-5.581 0.263,-1.878 1,-3.861 1.957,-5.704 0.956,-1.842 3.729,-5.458 3.773,-5.335 0.044,0.123 -2.633,3.993 -3.493,6.081 C 0.956,-8.45 0.421,-5.914 0.14,-4.089 -0.14,-2.273 0.097,0.246 0,0 Z"
         style="fill:#ffffff;fill-opacity:1;stroke:#f5f5f4;stroke-width:1.55999994;stroke-linecap:butt;stroke-linejoin:miter;stroke-miterlimit:10;stroke-dasharray:none;stroke-opacity:1"
         id="path1064"
         inkscape:connector-curvature="0" />
    </g>
    <g
       id="g1070"
       transform="matrix(2.9616911,0,0,-2.9616911,94.46353,131.2399)"
       style="fill:#ffffff;fill-opacity:1;stroke:#f5f5f4;stroke-opacity:1">
      <path
         d="m 0,0 c -0.14,-0.123 0.623,-2.018 0.14,-3.58 -0.491,-1.571 -2.957,-5.327 -3.053,-5.818 -0.088,-0.491 1.851,1.755 2.501,2.843 0.64,1.097 1.246,2.624 1.377,3.712 C 1.106,-1.746 0.14,0.123 0,0 Z"
         style="fill:#ffffff;fill-opacity:1;stroke:#f5f5f4;stroke-width:1.55999994;stroke-linecap:butt;stroke-linejoin:miter;stroke-miterlimit:10;stroke-dasharray:none;stroke-opacity:1"
         id="path1072"
         inkscape:connector-curvature="0" />
    </g>
  </g>
</svg>
