<?xml version="1.0" encoding="UTF-8" standalone="no"?>
<!-- Created with Inkscape (http://www.inkscape.org/) -->

<svg
   xmlns:dc="http://purl.org/dc/elements/1.1/"
   xmlns:cc="http://creativecommons.org/ns#"
   xmlns:rdf="http://www.w3.org/1999/02/22-rdf-syntax-ns#"
   xmlns:svg="http://www.w3.org/2000/svg"
   xmlns="http://www.w3.org/2000/svg"
   xmlns:sodipodi="http://sodipodi.sourceforge.net/DTD/sodipodi-0.dtd"
   xmlns:inkscape="http://www.inkscape.org/namespaces/inkscape"
   width="366.73697"
   height="626.13641"
   viewBox="0 0 97.032487 165.66526"
   version="1.1"
   id="svg3735"
   inkscape:version="0.92.4 (5da689c313, 2019-01-14)"
   sodipodi:docname="bulb.svg"
   style="enable-background:new">
  <defs
     id="defs3729">
    <filter
       id="softGlow"
       height="300%"
       width="300%"
       x="-75%"
       y="-75%">
      <!-- Thicken out the original shape -->
      <feMorphology
         operator="dilate"
         radius="3"
         in="SourceAlpha"
         result="thicken"
         id="feMorphology815" />
      <!-- Use a gaussian blur to create the soft blurriness of the glow -->
      <feGaussianBlur
         in="thicken"
         stdDeviation="18"
         result="blurred"
         id="feGaussianBlur817" />
      <!-- Change the colour -->
      <feFlood
         flood-color="rgb(255,254,60)"
         result="glowColor"
         id="feFlood819"
         flood-opacity="1" />
      <!-- Color in the glows -->
      <feComposite
         operator="in"
         result="softGlow_colored"
         id="feComposite821"
         in="glowColor"
         in2="blurred" />
      <!--	Layer the effects together -->
      <feMerge
         id="feMerge827">
        <feMergeNode
           in="softGlow_colored"
           id="feMergeNode823" />
        <feMergeNode
           in="SourceGraphic"
           id="feMergeNode825" />
      </feMerge>
    </filter>
  </defs>
  <sodipodi:namedview
     id="base"
     pagecolor="#ffffff"
     bordercolor="#666666"
     borderopacity="1.0"
     inkscape:pageopacity="0.0"
     inkscape:pageshadow="2"
     inkscape:zoom="0.9899495"
     inkscape:cx="143.67882"
     inkscape:cy="255.0269"
     inkscape:document-units="mm"
     inkscape:current-layer="bulb"
     showgrid="false"
     units="px"
     showguides="true"
     inkscape:guide-bbox="true"
     inkscape:window-width="1280"
     inkscape:window-height="954"
     inkscape:window-x="0"
     inkscape:window-y="0"
     inkscape:window-maximized="1"
     fit-margin-top="0"
     fit-margin-left="0"
     fit-margin-right="0"
     fit-margin-bottom="0">
    <sodipodi:guide
       position="49.007434,170.19495"
       orientation="1,0"
       id="guide3739"
       inkscape:locked="false" />
    <sodipodi:guide
       position="37.309311,50.923663"
       orientation="0,1"
       id="guide4917"
       inkscape:locked="false" />
    <sodipodi:guide
       position="33.868216,57.638803"
       orientation="0,1"
       id="guide4919"
       inkscape:locked="false" />
  </sodipodi:namedview>
  <metadata
     id="metadata3732">
    <rdf:RDF>
      <cc:Work
         rdf:about="">
        <dc:format>image/svg+xml</dc:format>
        <dc:type
           rdf:resource="http://purl.org/dc/dcmitype/StillImage" />
        <dc:title />
      </cc:Work>
    </rdf:RDF>
  </metadata>
  <g
     transform="translate(-57.203875,-65.294545)"
     id="bulb"
     inkscape:label="bulb">
    <path
       class=""
       style="opacity:1;fill:#f4f4f4;fill-opacity:1;fill-rule:nonzero;stroke:#515151;stroke-width:1.20000005;stroke-linecap:butt;stroke-linejoin:miter;stroke-miterlimit:4;stroke-dasharray:none;stroke-opacity:1;enable-background:new"
       d="m 86.41105,101.6813 c 0,0 -4.97554,5.45957 -6.16101,8.85409 -1.78469,5.11034 -0.2719,10.84741 -1.03943,16.20573 -0.26547,1.85329 -0.61508,3.71176 -1.22843,5.48065 -3.89078,11.22102 -10.60778,21.26245 -15.40253,32.12798 -5.41221,12.26478 -5.01578,26.7091 0.37798,38.27009 7.72042,16.54797 26.17008,26.59142 43.08928,26.83631 15.75139,0.22799 32.43962,-10.47445 40.82143,-23.8125 7.3974,-11.77155 6.95416,-32.21325 3.30729,-41.57738 -2.56501,-6.58622 -11.02268,-18.26001 -15.11905,-28.06473 -0.7874,-1.88465 -1.41685,-3.85149 -1.79538,-5.85863 -1.00688,-5.339 -0.39898,-10.88355 -1.22843,-16.25298 -0.25194,-1.63092 -0.40443,-3.33893 -1.13393,-4.8192 -1.34878,-2.73689 -5.78894,-7.09059 -5.78894,-7.09059"
       id="glass-copy"
       inkscape:connector-curvature="0"
       sodipodi:nodetypes="caaassaasaaaac"
       inkscape:label="glass-copy" />
    <path
       class="bulb-glass"
       style="opacity:1;fill:#ffffff;fill-opacity:0.01376145;fill-rule:nonzero;stroke:#515151;stroke-width:2.4000001;stroke-linecap:butt;stroke-linejoin:miter;stroke-miterlimit:4;stroke-dasharray:none;stroke-opacity:1"
       d="m 86.411048,101.6813 c 0,0 -4.975541,5.45957 -6.161013,8.85409 -1.784689,5.11034 -0.271903,10.84741 -1.039434,16.20573 -0.265468,1.85329 -0.615078,3.71176 -1.228424,5.48065 -3.89078,11.22102 -10.60778,21.26245 -15.402528,32.12798 -5.41221,12.26478 -5.015781,26.7091 0.377976,38.27009 7.72042,16.54797 26.170084,26.59142 43.089285,26.83631 15.75139,0.22799 32.43962,-10.47445 40.82143,-23.8125 7.3974,-11.77155 6.95416,-32.21325 3.30729,-41.57738 -2.56501,-6.58622 -11.02268,-18.26001 -15.11905,-28.06473 -0.7874,-1.88465 -1.41685,-3.85149 -1.79538,-5.85863 -1.00688,-5.339 -0.39898,-10.88355 -1.22843,-16.25298 -0.25194,-1.63092 -0.40443,-3.33893 -1.13393,-4.8192 -1.34878,-2.73689 -5.78894,-7.09059 -5.78894,-7.09059"
       id="glass"
       inkscape:connector-curvature="0"
       sodipodi:nodetypes="caaassaasaaaac"
       sodipodi:insensitive="true" />
    <g
       inkscape:label="filamentLinker"
       id="filamentLinker"
       inkscape:groupmode="layer">
      <path
         inkscape:label="rightFilamentLinker"
         sodipodi:nodetypes="cc"
         inkscape:connector-curvature="0"
         id="rightFilamentLinker"
         d="m 126.64066,175.89461 c 0,0 -13.89977,-16.87245 -13.98477,-73.4646"
         style="fill:none;stroke:#515151;stroke-width:1.26499999;stroke-linecap:round;stroke-linejoin:miter;stroke-miterlimit:4;stroke-dasharray:none;stroke-opacity:1" />
      <path
         inkscape:label="leftFilamentLinker"
         sodipodi:nodetypes="cc"
         inkscape:connector-curvature="0"
         id="leftFilamentLinker"
         d="m 81.495718,176.85298 c 0,0 16.25811,-26.78444 16.792651,-74.09114"
         style="fill:none;stroke:#515151;stroke-width:1.26499999;stroke-linecap:round;stroke-linejoin:miter;stroke-miterlimit:4;stroke-dasharray:none;stroke-opacity:1" />
    </g>
    <path
       inkscape:label="filament"
       sodipodi:nodetypes="csszsszsszsszcszcszsszsszsszsszsszsszsszsszsszsszsszsszsszsszssscc"
       inkscape:tile-y0="193.68873"
       inkscape:tile-x0="81.382866"
       inkscape:tile-h="6.9797231"
       inkscape:tile-w="4.4032359"
       inkscape:tile-cy="197.17859"
       inkscape:tile-cx="83.574646"
       inkscape:connector-curvature="0"
       id="filament"
       d="m 81.495716,176.85299 c 1.057159,-1.72792 1.825559,-3.53198 3.262133,-3.53198 1.436574,0 1.135893,6.71514 -0.835218,6.71514 -1.971114,0 -1.458782,-2.3122 -0.930333,-3.17849 0.528449,-0.8663 2.354465,-3.53665 3.79104,-3.53665 1.436573,0 1.135892,6.71514 -0.835218,6.71514 -1.971114,0 -1.458782,-2.3122 -0.930333,-3.17849 0.528449,-0.8663 2.354465,-3.53665 3.791039,-3.53665 1.436574,0 1.135893,6.71514 -0.835218,6.71514 -1.971114,0 -1.458782,-2.31221 -0.930333,-3.1785 0.528449,-0.86629 2.354465,-3.53664 3.79104,-3.53664 1.436573,0 1.135892,6.71514 -0.835218,6.71514 -1.971114,0 -1.32368,-2.40661 -0.930072,-3.17383 0.393609,-0.76722 2.203348,-3.43429 3.790778,-3.54098 1.436574,0 1.135893,6.71514 -0.835218,6.71514 -1.971114,0 -1.474533,-2.26465 -0.930072,-3.17383 0.544461,-0.90918 2.289707,-3.44109 3.790779,-3.54198 1.436574,0 1.135893,6.71514 -0.835218,6.71514 -1.971114,0 -1.458782,-2.31213 -0.930333,-3.17833 0.528449,-0.86621 2.354465,-3.53647 3.791039,-3.53647 1.436574,0 1.135893,6.71514 -0.835218,6.71514 -1.971114,0 -1.458781,-2.31221 -0.930332,-3.1785 0.528449,-0.86629 2.354465,-3.53664 3.791039,-3.53664 1.436571,0 1.135891,6.71514 -0.835218,6.71514 -1.971114,0 -1.458782,-2.31221 -0.930333,-3.1785 0.528449,-0.86629 2.354465,-3.53664 3.791042,-3.53664 1.43657,0 1.13589,6.71514 -0.83522,6.71514 -1.971115,0 -1.458783,-2.31221 -0.930334,-3.1785 0.528447,-0.86629 2.354464,-3.53664 3.791044,-3.53664 1.43657,0 1.13589,6.71514 -0.83522,6.71514 -1.97112,0 -1.45879,-2.3122 -0.93034,-3.17849 0.52845,-0.8663 2.35447,-3.53665 3.79104,-3.53665 1.43658,0 1.1359,6.71514 -0.83521,6.71514 -1.97112,0 -1.45879,-2.3122 -0.93034,-3.17849 0.52845,-0.8663 2.35447,-3.53665 3.79104,-3.53665 1.43658,0 1.1359,6.71514 -0.83521,6.71514 -1.97112,0 -1.45879,-2.3122 -0.93034,-3.17849 0.52845,-0.8663 2.35447,-3.53665 3.79104,-3.53665 1.43658,0 1.13589,6.71514 -0.83522,6.71514 -1.97111,0 -1.45878,-2.3122 -0.93033,-3.17849 0.52845,-0.8663 2.35447,-3.53665 3.79104,-3.53665 1.43657,0 1.13589,6.71514 -0.83522,6.71514 -1.97111,0 -1.45878,-2.3122 -0.93033,-3.17849 0.52844,-0.8663 2.35446,-3.53665 3.79104,-3.53665 1.43657,0 1.13589,6.71514 -0.83522,6.71514 -1.97111,0 -1.45879,-2.3122 -0.93034,-3.17849 0.52845,-0.8663 2.35447,-3.53665 3.79105,-3.53665 1.43657,0 1.13589,6.71514 -0.83522,6.71514 -1.97111,0 -1.45879,-2.31221 -0.93034,-3.1785 0.52845,-0.86629 2.35447,-3.53664 3.79105,-3.53664 1.43657,0 1.13589,6.71514 -0.83522,6.71514 -1.97112,0 -1.45879,-2.3122 -0.93034,-3.17849 0.52845,-0.8663 2.35447,-3.53665 3.79104,-3.53665 1.43658,0 1.1359,6.71514 -0.83521,6.71514 -1.97112,0 -1.45879,-2.3122 -0.93034,-3.17849 0.52845,-0.8663 2.35447,-3.53665 3.79104,-3.53665 1.43658,0 1.1359,6.71514 -0.83522,6.71514 -1.97111,0 -1.45878,-2.3122 -0.93033,-3.17849 0.52845,-0.8663 2.35447,-3.53665 3.79104,-3.53665 1.43658,0 1.13589,6.71514 -0.83522,6.71514 -1.97111,0 -1.45878,-2.3122 -0.93033,-3.17849 0.52845,-0.8663 2.35447,-3.53665 3.79104,-3.53665 1.43657,0 1.13589,6.71514 -0.83522,6.71514 -1.97111,0 -1.33203,-2.60751 -0.93007,-3.17383 0.25696,-0.36203 1.21908,-0.64076 1.7388,-0.74707 0.51972,-0.1063 1.39953,-0.22064 1.39953,-0.22064"
       style="fill:none;stroke:#515151;stroke-width:1.16499996;stroke-linecap:round;stroke-linejoin:bevel;stroke-miterlimit:4;stroke-dasharray:none;stroke-opacity:1"
       class="bulb-filament" />
    <path
       inkscape:label="foot"
       sodipodi:nodetypes="caszzzzzsccszzzzzzcc"
       inkscape:connector-curvature="0"
       id="foot"
       d="m 106.5545,65.508473 c -8.911203,0.197629 -11.545515,5.02429 -17.075725,8.016919 -1.599347,0.865474 -4.636854,1.605787 -4.642127,2.865879 -0.0047,1.133311 2.615975,1.623639 2.539659,2.884657 -0.07631,1.261018 -3.073824,1.115603 -2.993109,2.413547 0.08072,1.297944 2.664942,1.414618 2.649104,2.804229 -0.01584,1.389612 -3.183694,1.752857 -3.150284,3.186081 0.03341,1.433224 2.937681,1.482562 3.030955,2.792298 0.09328,1.309735 -2.400894,1.659503 -2.374646,2.911626 0.06723,3.20728 0.110287,2.520524 0.131262,8.973541 5.464229,0.49286 27.617281,0.35233 42.100221,0.38238 -0.0731,-4.337707 -0.0589,-3.750994 -0.13501,-5.805232 -0.0422,-1.139794 -2.77794,-1.211134 -2.7418,-2.524461 0.0362,-1.313327 2.7506,-1.416725 2.68491,-2.732633 -0.0657,-1.315907 -2.82344,-1.759575 -2.74457,-3.078685 0.0789,-1.319111 2.79068,-1.200008 2.85196,-2.51784 0.0613,-1.317832 -2.84721,-1.61412 -2.81616,-2.995157 0.031,-1.381036 2.84275,-1.338635 2.72514,-2.979128 -0.1176,-1.640493 -5.56813,-5.689573 -6.20263,-6.345031 -3.13468,-2.366411 -7.56936,-8.406682 -13.83715,-8.25299 z"
       style="fill:#909090;fill-opacity:1;stroke:none;stroke-width:0.80820441;stroke-linecap:butt;stroke-linejoin:miter;stroke-miterlimit:4;stroke-dasharray:none;stroke-opacity:0.52941165" />
    <path
       inkscape:label="foot"
       sodipodi:nodetypes="cczcc"
       inkscape:connector-curvature="0"
       id="foot-6"
       d="m 106.5545,65.508473 c -4.39743,0.09752 -7.266353,1.32229 -9.709029,2.897641 -1.431792,0.914092 4.506259,2.205977 9.365839,2.183247 4.85958,-0.02273 8.92624,-1.303493 7.52392,-2.578963 -2.07616,-1.464297 -4.45512,-2.56876 -7.18073,-2.501925 z"
       style="fill:#161616;fill-opacity:1;stroke:none;stroke-width:0.80820447;stroke-linecap:butt;stroke-linejoin:miter;stroke-miterlimit:4;stroke-dasharray:none;stroke-opacity:0.52941165;enable-background:new" />
  </g>
</svg>
