<?xml version="1.0" encoding="UTF-8" standalone="no"?>
<!-- Created with Inkscape (http://www.inkscape.org/) -->

<svg
   xmlns:dc="http://purl.org/dc/elements/1.1/"
   xmlns:cc="http://creativecommons.org/ns#"
   xmlns:rdf="http://www.w3.org/1999/02/22-rdf-syntax-ns#"
   xmlns:svg="http://www.w3.org/2000/svg"
   xmlns="http://www.w3.org/2000/svg"
   xmlns:sodipodi="http://sodipodi.sourceforge.net/DTD/sodipodi-0.dtd"
   xmlns:inkscape="http://www.inkscape.org/namespaces/inkscape"
   width="366.73697"
   height="626.13641"
   viewBox="0 0 97.032487 165.66526"
   version="1.1"
   id="svg3735"
   inkscape:version="0.92.4 (5da689c313, 2019-01-14)"
   sodipodi:docname="bulb.svg"
   style="enable-background:new">
  <defs
     id="defs3729" />
  <sodipodi:namedview
     id="base"
     pagecolor="#ffffff"
     bordercolor="#666666"
     borderopacity="1.0"
     inkscape:pageopacity="0.0"
     inkscape:pageshadow="2"
     inkscape:zoom="1.979899"
     inkscape:cx="135.39861"
     inkscape:cy="340.54771"
     inkscape:document-units="mm"
     inkscape:current-layer="bulb"
     showgrid="false"
     units="px"
     showguides="true"
     inkscape:guide-bbox="true"
     inkscape:window-width="1920"
     inkscape:window-height="1010"
     inkscape:window-x="0"
     inkscape:window-y="0"
     inkscape:window-maximized="1"
     fit-margin-top="0"
     fit-margin-left="0"
     fit-margin-right="0"
     fit-margin-bottom="0">
    <sodipodi:guide
       position="49.007434,170.19495"
       orientation="1,0"
       id="guide3739"
       inkscape:locked="false" />
    <sodipodi:guide
       position="37.309311,50.923663"
       orientation="0,1"
       id="guide4917"
       inkscape:locked="false" />
    <sodipodi:guide
       position="33.868216,57.638803"
       orientation="0,1"
       id="guide4919"
       inkscape:locked="false" />
  </sodipodi:namedview>
  <metadata
     id="metadata3732">
    <rdf:RDF>
      <cc:Work
         rdf:about="">
        <dc:format>image/svg+xml</dc:format>
        <dc:type
           rdf:resource="http://purl.org/dc/dcmitype/StillImage" />
        <dc:title />
      </cc:Work>
    </rdf:RDF>
  </metadata>
  <g
     transform="translate(-57.203875,-65.294545)"
     id="bulb"
     inkscape:label="bulb">
    <g
       inkscape:label="filamentLinker"
       id="filamentLinker"
       inkscape:groupmode="layer">
      <path
         inkscape:label="rightFilamentLinker"
         sodipodi:nodetypes="cc"
         inkscape:connector-curvature="0"
         id="rightFilamentLinker"
         d="m 126.64066,175.89461 c 0,0 -13.6325,-16.20428 -13.7175,-72.79643"
         style="fill:none;stroke:#000000;stroke-width:0.76499999;stroke-linecap:round;stroke-linejoin:miter;stroke-miterlimit:4;stroke-dasharray:none;stroke-opacity:1" />
      <path
         inkscape:label="leftFilamentLinker"
         sodipodi:nodetypes="cc"
         inkscape:connector-curvature="0"
         id="leftFilamentLinker"
         d="m 81.495718,176.85298 c 0,0 16.324927,-27.92034 16.859468,-75.22704"
         style="fill:none;stroke:#000000;stroke-width:0.76499999;stroke-linecap:round;stroke-linejoin:miter;stroke-miterlimit:4;stroke-dasharray:none;stroke-opacity:1" />
    </g>
    <path
       inkscape:label="filament"
       sodipodi:nodetypes="csszsszsszsszcszcszsszsszsszsszsszsszsszsszsszsszsszsszsszsszssscc"
       inkscape:tile-y0="193.68873"
       inkscape:tile-x0="81.382866"
       inkscape:tile-h="6.9797231"
       inkscape:tile-w="4.4032359"
       inkscape:tile-cy="197.17859"
       inkscape:tile-cx="83.574646"
       inkscape:connector-curvature="0"
       id="filament"
       d="m 81.495716,176.85299 c 1.057159,-1.72792 1.825559,-3.53198 3.262133,-3.53198 1.436574,0 1.135893,6.71514 -0.835218,6.71514 -1.971114,0 -1.458782,-2.3122 -0.930333,-3.17849 0.528449,-0.8663 2.354465,-3.53665 3.79104,-3.53665 1.436573,0 1.135892,6.71514 -0.835218,6.71514 -1.971114,0 -1.458782,-2.3122 -0.930333,-3.17849 0.528449,-0.8663 2.354465,-3.53665 3.791039,-3.53665 1.436574,0 1.135893,6.71514 -0.835218,6.71514 -1.971114,0 -1.458782,-2.31221 -0.930333,-3.1785 0.528449,-0.86629 2.354465,-3.53664 3.79104,-3.53664 1.436573,0 1.135892,6.71514 -0.835218,6.71514 -1.971114,0 -1.32368,-2.40661 -0.930072,-3.17383 0.393609,-0.76722 2.203348,-3.43429 3.790778,-3.54098 1.436574,0 1.135893,6.71514 -0.835218,6.71514 -1.971114,0 -1.474533,-2.26465 -0.930072,-3.17383 0.544461,-0.90918 2.289707,-3.44109 3.790779,-3.54198 1.436574,0 1.135893,6.71514 -0.835218,6.71514 -1.971114,0 -1.458782,-2.31213 -0.930333,-3.17833 0.528449,-0.86621 2.354465,-3.53647 3.791039,-3.53647 1.436574,0 1.135893,6.71514 -0.835218,6.71514 -1.971114,0 -1.458781,-2.31221 -0.930332,-3.1785 0.528449,-0.86629 2.354465,-3.53664 3.791039,-3.53664 1.436571,0 1.135891,6.71514 -0.835218,6.71514 -1.971114,0 -1.458782,-2.31221 -0.930333,-3.1785 0.528449,-0.86629 2.354465,-3.53664 3.791042,-3.53664 1.43657,0 1.13589,6.71514 -0.83522,6.71514 -1.971115,0 -1.458783,-2.31221 -0.930334,-3.1785 0.528447,-0.86629 2.354464,-3.53664 3.791044,-3.53664 1.43657,0 1.13589,6.71514 -0.83522,6.71514 -1.97112,0 -1.45879,-2.3122 -0.93034,-3.17849 0.52845,-0.8663 2.35447,-3.53665 3.79104,-3.53665 1.43658,0 1.1359,6.71514 -0.83521,6.71514 -1.97112,0 -1.45879,-2.3122 -0.93034,-3.17849 0.52845,-0.8663 2.35447,-3.53665 3.79104,-3.53665 1.43658,0 1.1359,6.71514 -0.83521,6.71514 -1.97112,0 -1.45879,-2.3122 -0.93034,-3.17849 0.52845,-0.8663 2.35447,-3.53665 3.79104,-3.53665 1.43658,0 1.13589,6.71514 -0.83522,6.71514 -1.97111,0 -1.45878,-2.3122 -0.93033,-3.17849 0.52845,-0.8663 2.35447,-3.53665 3.79104,-3.53665 1.43657,0 1.13589,6.71514 -0.83522,6.71514 -1.97111,0 -1.45878,-2.3122 -0.93033,-3.17849 0.52844,-0.8663 2.35446,-3.53665 3.79104,-3.53665 1.43657,0 1.13589,6.71514 -0.83522,6.71514 -1.97111,0 -1.45879,-2.3122 -0.93034,-3.17849 0.52845,-0.8663 2.35447,-3.53665 3.79105,-3.53665 1.43657,0 1.13589,6.71514 -0.83522,6.71514 -1.97111,0 -1.45879,-2.31221 -0.93034,-3.1785 0.52845,-0.86629 2.35447,-3.53664 3.79105,-3.53664 1.43657,0 1.13589,6.71514 -0.83522,6.71514 -1.97112,0 -1.45879,-2.3122 -0.93034,-3.17849 0.52845,-0.8663 2.35447,-3.53665 3.79104,-3.53665 1.43658,0 1.1359,6.71514 -0.83521,6.71514 -1.97112,0 -1.45879,-2.3122 -0.93034,-3.17849 0.52845,-0.8663 2.35447,-3.53665 3.79104,-3.53665 1.43658,0 1.1359,6.71514 -0.83522,6.71514 -1.97111,0 -1.45878,-2.3122 -0.93033,-3.17849 0.52845,-0.8663 2.35447,-3.53665 3.79104,-3.53665 1.43658,0 1.13589,6.71514 -0.83522,6.71514 -1.97111,0 -1.45878,-2.3122 -0.93033,-3.17849 0.52845,-0.8663 2.35447,-3.53665 3.79104,-3.53665 1.43657,0 1.13589,6.71514 -0.83522,6.71514 -1.97111,0 -1.33203,-2.60751 -0.93007,-3.17383 0.25696,-0.36203 1.21908,-0.64076 1.7388,-0.74707 0.51972,-0.1063 1.39953,-0.22064 1.39953,-0.22064"
       style="fill:none;stroke:#000000;stroke-width:0.465;stroke-linecap:round;stroke-linejoin:bevel;stroke-miterlimit:4;stroke-dasharray:none;stroke-opacity:1"
       class="bulb-filament" />
    <path
       inkscape:label="foot"
       sodipodi:nodetypes="caszzzzzsccszzzzzzcc"
       inkscape:connector-curvature="0"
       id="foot"
       d="m 106.54203,65.697432 c -8.820745,0.195623 -11.428315,4.973286 -16.902386,7.935536 -1.583112,0.856688 -4.589784,1.589486 -4.595003,2.836787 -0.0047,1.121806 2.589419,1.607156 2.513878,2.855373 -0.07554,1.248217 -3.042621,1.104279 -2.962725,2.389047 0.0799,1.284768 2.637889,1.400257 2.622212,2.775762 -0.01568,1.375505 -3.151375,1.735063 -3.118305,3.153738 0.03307,1.418675 2.90786,1.467512 3.000187,2.763952 0.09233,1.29644 -2.376522,1.642657 -2.35054,2.882069 0.06655,3.174722 0.109167,2.494937 0.129929,8.882444 5.40876,0.48786 27.336933,0.34876 41.672843,0.3785 -0.0723,-4.293671 -0.0583,-3.712914 -0.13364,-5.746299 -0.0418,-1.128224 -2.74974,-1.198839 -2.71396,-2.498834 0.0358,-1.299995 2.72268,-1.402344 2.65765,-2.704893 -0.065,-1.302549 -2.79478,-1.741713 -2.71671,-3.047433 0.0781,-1.30572 2.76235,-1.187826 2.82301,-2.49228 0.0607,-1.304454 -2.81831,-1.597735 -2.78757,-2.964752 0.0307,-1.367017 2.81389,-1.325046 2.69748,-2.948886 -0.11641,-1.62384 -5.51161,-5.631816 -6.13967,-6.28062 -3.10286,-2.342389 -7.49252,-8.321343 -13.69668,-8.169211 z"
       style="fill:#000000;fill-opacity:1;stroke:#000000;stroke-width:0.80000001;stroke-linecap:butt;stroke-linejoin:miter;stroke-miterlimit:4;stroke-dasharray:none;stroke-opacity:1" />
    <path
       class="bulb-glass"
       ref="bulb-glass"
       style="opacity:1;fill:none;fill-opacity:0.63073395;fill-rule:nonzero;stroke:#000000;stroke-width:3;stroke-linecap:butt;stroke-linejoin:miter;stroke-miterlimit:4;stroke-dasharray:none;stroke-opacity:1"
       d="m 85.352714,102.73963 c 0,0 -4.120385,4.84944 -5.102679,7.79576 -1.712039,5.13513 -0.271903,10.84741 -1.039434,16.20573 -0.265468,1.85329 -0.615078,3.71176 -1.228424,5.48065 -3.89078,11.22102 -10.60778,21.26245 -15.402528,32.12798 -5.41221,12.26478 -5.015781,26.7091 0.377976,38.27009 7.72042,16.54797 26.170084,26.59142 43.089285,26.83631 15.75139,0.22799 32.43962,-10.47445 40.82143,-23.8125 7.3974,-11.77155 6.95416,-32.21325 3.30729,-41.57738 -2.56501,-6.58622 -11.02268,-18.26001 -15.11905,-28.06473 -0.7874,-1.88465 -1.41685,-3.85149 -1.79538,-5.85863 -1.00688,-5.339 -0.39898,-10.88355 -1.22843,-16.25298 -0.25194,-1.63092 -0.4768,-3.30541 -1.13393,-4.8192 -1.0401,-2.39604 -4.34672,-6.52009 -4.34672,-6.52009 z"
       id="glass"
       inkscape:connector-curvature="0"
       sodipodi:nodetypes="caaassaasaaaacc" />
  </g>
</svg>
